%TF.GenerationSoftware,KiCad,Pcbnew,9.0.0*%
%TF.CreationDate,2025-04-02T18:46:55+01:00*%
%TF.ProjectId,Wireless_power_Transfer,57697265-6c65-4737-935f-706f7765725f,rev?*%
%TF.SameCoordinates,Original*%
%TF.FileFunction,Soldermask,Bot*%
%TF.FilePolarity,Negative*%
%FSLAX46Y46*%
G04 Gerber Fmt 4.6, Leading zero omitted, Abs format (unit mm)*
G04 Created by KiCad (PCBNEW 9.0.0) date 2025-04-02 18:46:55*
%MOMM*%
%LPD*%
G01*
G04 APERTURE LIST*
G04 APERTURE END LIST*
G36*
X161099134Y-116928806D02*
G01*
X161115355Y-116939645D01*
X161126194Y-116955866D01*
X161130000Y-116975000D01*
X161130000Y-118775000D01*
X161126194Y-118794134D01*
X161115355Y-118810355D01*
X161099134Y-118821194D01*
X161080000Y-118825000D01*
X159370000Y-118825000D01*
X159350866Y-118821194D01*
X159334645Y-118810355D01*
X159323806Y-118794134D01*
X159320000Y-118775000D01*
X159320000Y-116975000D01*
X159323806Y-116955866D01*
X159334645Y-116939645D01*
X159350866Y-116928806D01*
X159370000Y-116925000D01*
X161080000Y-116925000D01*
X161099134Y-116928806D01*
G37*
G36*
X162767708Y-116963969D02*
G01*
X162931614Y-117031861D01*
X163079126Y-117130426D01*
X163204574Y-117255874D01*
X163303139Y-117403386D01*
X163371031Y-117567292D01*
X163405642Y-117741294D01*
X163410000Y-117830000D01*
X163410000Y-117920000D01*
X163405642Y-118008706D01*
X163371031Y-118182708D01*
X163303139Y-118346614D01*
X163204574Y-118494126D01*
X163079126Y-118619574D01*
X162931614Y-118718139D01*
X162767708Y-118786031D01*
X162593706Y-118820642D01*
X162416294Y-118820642D01*
X162242292Y-118786031D01*
X162078386Y-118718139D01*
X161930874Y-118619574D01*
X161805426Y-118494126D01*
X161706861Y-118346614D01*
X161638969Y-118182708D01*
X161604358Y-118008706D01*
X161600000Y-117920000D01*
X161600000Y-117830000D01*
X161604358Y-117741294D01*
X161638969Y-117567292D01*
X161706861Y-117403386D01*
X161805426Y-117255874D01*
X161930874Y-117130426D01*
X162078386Y-117031861D01*
X162242292Y-116963969D01*
X162416294Y-116929358D01*
X162593706Y-116929358D01*
X162767708Y-116963969D01*
G37*
G36*
X165047708Y-116963969D02*
G01*
X165211614Y-117031861D01*
X165359126Y-117130426D01*
X165484574Y-117255874D01*
X165583139Y-117403386D01*
X165651031Y-117567292D01*
X165685642Y-117741294D01*
X165690000Y-117830000D01*
X165690000Y-117920000D01*
X165685642Y-118008706D01*
X165651031Y-118182708D01*
X165583139Y-118346614D01*
X165484574Y-118494126D01*
X165359126Y-118619574D01*
X165211614Y-118718139D01*
X165047708Y-118786031D01*
X164873706Y-118820642D01*
X164696294Y-118820642D01*
X164522292Y-118786031D01*
X164358386Y-118718139D01*
X164210874Y-118619574D01*
X164085426Y-118494126D01*
X163986861Y-118346614D01*
X163918969Y-118182708D01*
X163884358Y-118008706D01*
X163880000Y-117920000D01*
X163880000Y-117830000D01*
X163884358Y-117741294D01*
X163918969Y-117567292D01*
X163986861Y-117403386D01*
X164085426Y-117255874D01*
X164210874Y-117130426D01*
X164358386Y-117031861D01*
X164522292Y-116963969D01*
X164696294Y-116929358D01*
X164873706Y-116929358D01*
X165047708Y-116963969D01*
G37*
G36*
X110056934Y-112183806D02*
G01*
X110073155Y-112194645D01*
X110083994Y-112210866D01*
X110087800Y-112230000D01*
X110087800Y-114770000D01*
X110083994Y-114789134D01*
X110073155Y-114805355D01*
X110056934Y-114816194D01*
X110037800Y-114820000D01*
X107497800Y-114820000D01*
X107478666Y-114816194D01*
X107462445Y-114805355D01*
X107451606Y-114789134D01*
X107447800Y-114770000D01*
X107447800Y-112230000D01*
X107451606Y-112210866D01*
X107462445Y-112194645D01*
X107478666Y-112183806D01*
X107497800Y-112180000D01*
X110037800Y-112180000D01*
X110056934Y-112183806D01*
G37*
G36*
X119058148Y-112216472D02*
G01*
X119255142Y-112280479D01*
X119439698Y-112374515D01*
X119607271Y-112496264D01*
X119753736Y-112642729D01*
X119875485Y-112810302D01*
X119969521Y-112994858D01*
X120033528Y-113191852D01*
X120065931Y-113396434D01*
X120065931Y-113603566D01*
X120033528Y-113808148D01*
X119969521Y-114005142D01*
X119875485Y-114189698D01*
X119753736Y-114357271D01*
X119607271Y-114503736D01*
X119439698Y-114625485D01*
X119255142Y-114719521D01*
X119058148Y-114783528D01*
X118853566Y-114815931D01*
X118646434Y-114815931D01*
X118441852Y-114783528D01*
X118244858Y-114719521D01*
X118060302Y-114625485D01*
X117892729Y-114503736D01*
X117746264Y-114357271D01*
X117624515Y-114189698D01*
X117530479Y-114005142D01*
X117466472Y-113808148D01*
X117434069Y-113603566D01*
X117434069Y-113396434D01*
X117466472Y-113191852D01*
X117530479Y-112994858D01*
X117624515Y-112810302D01*
X117746264Y-112642729D01*
X117892729Y-112496264D01*
X118060302Y-112374515D01*
X118244858Y-112280479D01*
X118441852Y-112216472D01*
X118646434Y-112184069D01*
X118853566Y-112184069D01*
X119058148Y-112216472D01*
G37*
G36*
X197039134Y-109353806D02*
G01*
X197055355Y-109364645D01*
X197066194Y-109380866D01*
X197070000Y-109400000D01*
X197070000Y-111600000D01*
X197066194Y-111619134D01*
X197055355Y-111635355D01*
X197039134Y-111646194D01*
X197020000Y-111650000D01*
X194820000Y-111650000D01*
X194800866Y-111646194D01*
X194784645Y-111635355D01*
X194773806Y-111619134D01*
X194770000Y-111600000D01*
X194770000Y-109400000D01*
X194773806Y-109380866D01*
X194784645Y-109364645D01*
X194800866Y-109353806D01*
X194820000Y-109350000D01*
X197020000Y-109350000D01*
X197039134Y-109353806D01*
G37*
G36*
X206348462Y-109381775D02*
G01*
X206520086Y-109437539D01*
X206680873Y-109519464D01*
X206826865Y-109625533D01*
X206954467Y-109753135D01*
X207060536Y-109899127D01*
X207142461Y-110059914D01*
X207198225Y-110231538D01*
X207226455Y-110409772D01*
X207226455Y-110590228D01*
X207198225Y-110768462D01*
X207142461Y-110940086D01*
X207060536Y-111100873D01*
X206954467Y-111246865D01*
X206826865Y-111374467D01*
X206680873Y-111480536D01*
X206520086Y-111562461D01*
X206348462Y-111618225D01*
X206170228Y-111646455D01*
X205989772Y-111646455D01*
X205811538Y-111618225D01*
X205639914Y-111562461D01*
X205479127Y-111480536D01*
X205333135Y-111374467D01*
X205205533Y-111246865D01*
X205099464Y-111100873D01*
X205017539Y-110940086D01*
X204961775Y-110768462D01*
X204933545Y-110590228D01*
X204933545Y-110409772D01*
X204961775Y-110231538D01*
X205017539Y-110059914D01*
X205099464Y-109899127D01*
X205205533Y-109753135D01*
X205333135Y-109625533D01*
X205479127Y-109519464D01*
X205639914Y-109437539D01*
X205811538Y-109381775D01*
X205989772Y-109353545D01*
X206170228Y-109353545D01*
X206348462Y-109381775D01*
G37*
G36*
X171939134Y-107888806D02*
G01*
X171955355Y-107899645D01*
X171966194Y-107915866D01*
X171970000Y-107935000D01*
X171970000Y-109735000D01*
X171966194Y-109754134D01*
X171955355Y-109770355D01*
X171939134Y-109781194D01*
X171920000Y-109785000D01*
X170120000Y-109785000D01*
X170100866Y-109781194D01*
X170084645Y-109770355D01*
X170073806Y-109754134D01*
X170070000Y-109735000D01*
X170070000Y-107935000D01*
X170073806Y-107915866D01*
X170084645Y-107899645D01*
X170100866Y-107888806D01*
X170120000Y-107885000D01*
X171920000Y-107885000D01*
X171939134Y-107888806D01*
G37*
G36*
X168755770Y-107925907D02*
G01*
X168927827Y-107997175D01*
X169082674Y-108100640D01*
X169214360Y-108232326D01*
X169317825Y-108387173D01*
X169389093Y-108559230D01*
X169425425Y-108741884D01*
X169425425Y-108928116D01*
X169389093Y-109110770D01*
X169317825Y-109282827D01*
X169214360Y-109437674D01*
X169082674Y-109569360D01*
X168927827Y-109672825D01*
X168755770Y-109744093D01*
X168573116Y-109780425D01*
X168386884Y-109780425D01*
X168204230Y-109744093D01*
X168032173Y-109672825D01*
X167877326Y-109569360D01*
X167745640Y-109437674D01*
X167642175Y-109282827D01*
X167570907Y-109110770D01*
X167534575Y-108928116D01*
X167534575Y-108741884D01*
X167570907Y-108559230D01*
X167642175Y-108387173D01*
X167745640Y-108232326D01*
X167877326Y-108100640D01*
X168032173Y-107997175D01*
X168204230Y-107925907D01*
X168386884Y-107889575D01*
X168573116Y-107889575D01*
X168755770Y-107925907D01*
G37*
G36*
X142803686Y-108150241D02*
G01*
X142857577Y-108152889D01*
X142864210Y-108154208D01*
X142878316Y-108155133D01*
X142905562Y-108162433D01*
X142974099Y-108176066D01*
X143006448Y-108189465D01*
X143029610Y-108195672D01*
X143050377Y-108207662D01*
X143082722Y-108221060D01*
X143140816Y-108259877D01*
X143165257Y-108273988D01*
X143171946Y-108280677D01*
X143180481Y-108286380D01*
X143263619Y-108369518D01*
X143269321Y-108378052D01*
X143276012Y-108384743D01*
X143290124Y-108409186D01*
X143328939Y-108467277D01*
X143342335Y-108499618D01*
X143354328Y-108520390D01*
X143360535Y-108543555D01*
X143373933Y-108575900D01*
X143387565Y-108644433D01*
X143394867Y-108671684D01*
X143394867Y-108681141D01*
X143396870Y-108691211D01*
X143396870Y-108808788D01*
X143394867Y-108818857D01*
X143394867Y-108828316D01*
X143387564Y-108855569D01*
X143373933Y-108924099D01*
X143360535Y-108956441D01*
X143354328Y-108979610D01*
X143342334Y-109000383D01*
X143328939Y-109032722D01*
X143290128Y-109090805D01*
X143276012Y-109115257D01*
X143269319Y-109121949D01*
X143263619Y-109130481D01*
X143180481Y-109213619D01*
X143171949Y-109219319D01*
X143165257Y-109226012D01*
X143140805Y-109240128D01*
X143082722Y-109278939D01*
X143050383Y-109292334D01*
X143029610Y-109304328D01*
X143006441Y-109310535D01*
X142974099Y-109323933D01*
X142905576Y-109337562D01*
X142878316Y-109344867D01*
X142864203Y-109345791D01*
X142857577Y-109347110D01*
X142803691Y-109349758D01*
X142800000Y-109350000D01*
X142798768Y-109350000D01*
X141701232Y-109350000D01*
X141700000Y-109350000D01*
X141696308Y-109349758D01*
X141642422Y-109347110D01*
X141635795Y-109345791D01*
X141621684Y-109344867D01*
X141594426Y-109337563D01*
X141525900Y-109323933D01*
X141493555Y-109310535D01*
X141470390Y-109304328D01*
X141449618Y-109292335D01*
X141417277Y-109278939D01*
X141359186Y-109240124D01*
X141334743Y-109226012D01*
X141328052Y-109219321D01*
X141319518Y-109213619D01*
X141236380Y-109130481D01*
X141230677Y-109121946D01*
X141223988Y-109115257D01*
X141209877Y-109090816D01*
X141171060Y-109032722D01*
X141157662Y-109000377D01*
X141145672Y-108979610D01*
X141139465Y-108956448D01*
X141126066Y-108924099D01*
X141112433Y-108855563D01*
X141105133Y-108828316D01*
X141105133Y-108818858D01*
X141103130Y-108808788D01*
X141103130Y-108691211D01*
X141105133Y-108681140D01*
X141105133Y-108671684D01*
X141112433Y-108644439D01*
X141126066Y-108575900D01*
X141139466Y-108543548D01*
X141145672Y-108520390D01*
X141157660Y-108499624D01*
X141171060Y-108467277D01*
X141209881Y-108409175D01*
X141223988Y-108384743D01*
X141230675Y-108378055D01*
X141236380Y-108369518D01*
X141319518Y-108286380D01*
X141328055Y-108280675D01*
X141334743Y-108273988D01*
X141359175Y-108259881D01*
X141417277Y-108221060D01*
X141449624Y-108207660D01*
X141470390Y-108195672D01*
X141493548Y-108189466D01*
X141525900Y-108176066D01*
X141594440Y-108162432D01*
X141621684Y-108155133D01*
X141635787Y-108154208D01*
X141642422Y-108152889D01*
X141696313Y-108150241D01*
X141700000Y-108150000D01*
X142800000Y-108150000D01*
X142803686Y-108150241D01*
G37*
G36*
X139803686Y-106000241D02*
G01*
X139857577Y-106002889D01*
X139864210Y-106004208D01*
X139878316Y-106005133D01*
X139905562Y-106012433D01*
X139974099Y-106026066D01*
X140006448Y-106039465D01*
X140029610Y-106045672D01*
X140050377Y-106057662D01*
X140082722Y-106071060D01*
X140140816Y-106109877D01*
X140165257Y-106123988D01*
X140171946Y-106130677D01*
X140180481Y-106136380D01*
X140263619Y-106219518D01*
X140269321Y-106228052D01*
X140276012Y-106234743D01*
X140290124Y-106259186D01*
X140328939Y-106317277D01*
X140342335Y-106349618D01*
X140354328Y-106370390D01*
X140360535Y-106393555D01*
X140373933Y-106425900D01*
X140387565Y-106494433D01*
X140394867Y-106521684D01*
X140394867Y-106531141D01*
X140396870Y-106541211D01*
X140396870Y-106658788D01*
X140394867Y-106668857D01*
X140394867Y-106678316D01*
X140387564Y-106705569D01*
X140373933Y-106774099D01*
X140360535Y-106806441D01*
X140354328Y-106829610D01*
X140342334Y-106850383D01*
X140328939Y-106882722D01*
X140290128Y-106940805D01*
X140276012Y-106965257D01*
X140269319Y-106971949D01*
X140263619Y-106980481D01*
X140180481Y-107063619D01*
X140171949Y-107069319D01*
X140165257Y-107076012D01*
X140140805Y-107090128D01*
X140082722Y-107128939D01*
X140050383Y-107142334D01*
X140029610Y-107154328D01*
X140006441Y-107160535D01*
X139974099Y-107173933D01*
X139905576Y-107187562D01*
X139878316Y-107194867D01*
X139864203Y-107195791D01*
X139857577Y-107197110D01*
X139803691Y-107199758D01*
X139800000Y-107200000D01*
X139798768Y-107200000D01*
X139101232Y-107200000D01*
X139100000Y-107200000D01*
X139096308Y-107199758D01*
X139042422Y-107197110D01*
X139035795Y-107195791D01*
X139021684Y-107194867D01*
X138994426Y-107187563D01*
X138925900Y-107173933D01*
X138893555Y-107160535D01*
X138870390Y-107154328D01*
X138849618Y-107142335D01*
X138817277Y-107128939D01*
X138759186Y-107090124D01*
X138734743Y-107076012D01*
X138728052Y-107069321D01*
X138719518Y-107063619D01*
X138636380Y-106980481D01*
X138630677Y-106971946D01*
X138623988Y-106965257D01*
X138609877Y-106940816D01*
X138571060Y-106882722D01*
X138557662Y-106850377D01*
X138545672Y-106829610D01*
X138539465Y-106806448D01*
X138526066Y-106774099D01*
X138512433Y-106705563D01*
X138505133Y-106678316D01*
X138505133Y-106668858D01*
X138503130Y-106658788D01*
X138503130Y-106541211D01*
X138505133Y-106531140D01*
X138505133Y-106521684D01*
X138512433Y-106494439D01*
X138526066Y-106425900D01*
X138539466Y-106393548D01*
X138545672Y-106370390D01*
X138557660Y-106349624D01*
X138571060Y-106317277D01*
X138609881Y-106259175D01*
X138623988Y-106234743D01*
X138630675Y-106228055D01*
X138636380Y-106219518D01*
X138719518Y-106136380D01*
X138728055Y-106130675D01*
X138734743Y-106123988D01*
X138759175Y-106109881D01*
X138817277Y-106071060D01*
X138849624Y-106057660D01*
X138870390Y-106045672D01*
X138893548Y-106039466D01*
X138925900Y-106026066D01*
X138994440Y-106012432D01*
X139021684Y-106005133D01*
X139035787Y-106004208D01*
X139042422Y-106002889D01*
X139096313Y-106000241D01*
X139100000Y-106000000D01*
X139800000Y-106000000D01*
X139803686Y-106000241D01*
G37*
G36*
X145403686Y-106000241D02*
G01*
X145457577Y-106002889D01*
X145464210Y-106004208D01*
X145478316Y-106005133D01*
X145505562Y-106012433D01*
X145574099Y-106026066D01*
X145606448Y-106039465D01*
X145629610Y-106045672D01*
X145650377Y-106057662D01*
X145682722Y-106071060D01*
X145740816Y-106109877D01*
X145765257Y-106123988D01*
X145771946Y-106130677D01*
X145780481Y-106136380D01*
X145863619Y-106219518D01*
X145869321Y-106228052D01*
X145876012Y-106234743D01*
X145890124Y-106259186D01*
X145928939Y-106317277D01*
X145942335Y-106349618D01*
X145954328Y-106370390D01*
X145960535Y-106393555D01*
X145973933Y-106425900D01*
X145987565Y-106494433D01*
X145994867Y-106521684D01*
X145994867Y-106531141D01*
X145996870Y-106541211D01*
X145996870Y-106658788D01*
X145994867Y-106668857D01*
X145994867Y-106678316D01*
X145987564Y-106705569D01*
X145973933Y-106774099D01*
X145960535Y-106806441D01*
X145954328Y-106829610D01*
X145942334Y-106850383D01*
X145928939Y-106882722D01*
X145890128Y-106940805D01*
X145876012Y-106965257D01*
X145869319Y-106971949D01*
X145863619Y-106980481D01*
X145780481Y-107063619D01*
X145771949Y-107069319D01*
X145765257Y-107076012D01*
X145740805Y-107090128D01*
X145682722Y-107128939D01*
X145650383Y-107142334D01*
X145629610Y-107154328D01*
X145606441Y-107160535D01*
X145574099Y-107173933D01*
X145505576Y-107187562D01*
X145478316Y-107194867D01*
X145464203Y-107195791D01*
X145457577Y-107197110D01*
X145403691Y-107199758D01*
X145400000Y-107200000D01*
X145398768Y-107200000D01*
X144701232Y-107200000D01*
X144700000Y-107200000D01*
X144696308Y-107199758D01*
X144642422Y-107197110D01*
X144635795Y-107195791D01*
X144621684Y-107194867D01*
X144594426Y-107187563D01*
X144525900Y-107173933D01*
X144493555Y-107160535D01*
X144470390Y-107154328D01*
X144449618Y-107142335D01*
X144417277Y-107128939D01*
X144359186Y-107090124D01*
X144334743Y-107076012D01*
X144328052Y-107069321D01*
X144319518Y-107063619D01*
X144236380Y-106980481D01*
X144230677Y-106971946D01*
X144223988Y-106965257D01*
X144209877Y-106940816D01*
X144171060Y-106882722D01*
X144157662Y-106850377D01*
X144145672Y-106829610D01*
X144139465Y-106806448D01*
X144126066Y-106774099D01*
X144112433Y-106705563D01*
X144105133Y-106678316D01*
X144105133Y-106668858D01*
X144103130Y-106658788D01*
X144103130Y-106541211D01*
X144105133Y-106531140D01*
X144105133Y-106521684D01*
X144112433Y-106494439D01*
X144126066Y-106425900D01*
X144139466Y-106393548D01*
X144145672Y-106370390D01*
X144157660Y-106349624D01*
X144171060Y-106317277D01*
X144209881Y-106259175D01*
X144223988Y-106234743D01*
X144230675Y-106228055D01*
X144236380Y-106219518D01*
X144319518Y-106136380D01*
X144328055Y-106130675D01*
X144334743Y-106123988D01*
X144359175Y-106109881D01*
X144417277Y-106071060D01*
X144449624Y-106057660D01*
X144470390Y-106045672D01*
X144493548Y-106039466D01*
X144525900Y-106026066D01*
X144594440Y-106012432D01*
X144621684Y-106005133D01*
X144635787Y-106004208D01*
X144642422Y-106002889D01*
X144696313Y-106000241D01*
X144700000Y-106000000D01*
X145400000Y-106000000D01*
X145403686Y-106000241D01*
G37*
M02*
