%TF.GenerationSoftware,KiCad,Pcbnew,9.0.0*%
%TF.CreationDate,2025-04-02T18:46:55+01:00*%
%TF.ProjectId,Wireless_power_Transfer,57697265-6c65-4737-935f-706f7765725f,rev?*%
%TF.SameCoordinates,Original*%
%TF.FileFunction,Copper,L1,Top*%
%TF.FilePolarity,Positive*%
%FSLAX46Y46*%
G04 Gerber Fmt 4.6, Leading zero omitted, Abs format (unit mm)*
G04 Created by KiCad (PCBNEW 9.0.0) date 2025-04-02 18:46:55*
%MOMM*%
%LPD*%
G01*
G04 APERTURE LIST*
G04 Aperture macros list*
%AMRoundRect*
0 Rectangle with rounded corners*
0 $1 Rounding radius*
0 $2 $3 $4 $5 $6 $7 $8 $9 X,Y pos of 4 corners*
0 Add a 4 corners polygon primitive as box body*
4,1,4,$2,$3,$4,$5,$6,$7,$8,$9,$2,$3,0*
0 Add four circle primitives for the rounded corners*
1,1,$1+$1,$2,$3*
1,1,$1+$1,$4,$5*
1,1,$1+$1,$6,$7*
1,1,$1+$1,$8,$9*
0 Add four rect primitives between the rounded corners*
20,1,$1+$1,$2,$3,$4,$5,0*
20,1,$1+$1,$4,$5,$6,$7,0*
20,1,$1+$1,$6,$7,$8,$9,0*
20,1,$1+$1,$8,$9,$2,$3,0*%
G04 Aperture macros list end*
%TA.AperFunction,SMDPad,CuDef*%
%ADD10RoundRect,0.190500X-0.762000X-0.444500X0.762000X-0.444500X0.762000X0.444500X-0.762000X0.444500X0*%
%TD*%
%TA.AperFunction,ComponentPad*%
%ADD11R,1.710000X1.800000*%
%TD*%
%TA.AperFunction,ComponentPad*%
%ADD12O,1.710000X1.800000*%
%TD*%
%TA.AperFunction,SMDPad,CuDef*%
%ADD13RoundRect,0.375000X-0.625000X-0.375000X0.625000X-0.375000X0.625000X0.375000X-0.625000X0.375000X0*%
%TD*%
%TA.AperFunction,SMDPad,CuDef*%
%ADD14RoundRect,0.500000X-0.500000X-1.400000X0.500000X-1.400000X0.500000X1.400000X-0.500000X1.400000X0*%
%TD*%
%TA.AperFunction,SMDPad,CuDef*%
%ADD15RoundRect,0.250000X-0.362500X-1.425000X0.362500X-1.425000X0.362500X1.425000X-0.362500X1.425000X0*%
%TD*%
%TA.AperFunction,SMDPad,CuDef*%
%ADD16R,1.300000X2.500000*%
%TD*%
%TA.AperFunction,ComponentPad*%
%ADD17R,2.200000X2.200000*%
%TD*%
%TA.AperFunction,ComponentPad*%
%ADD18O,2.200000X2.200000*%
%TD*%
%TA.AperFunction,SMDPad,CuDef*%
%ADD19RoundRect,0.150000X-0.825000X-0.150000X0.825000X-0.150000X0.825000X0.150000X-0.825000X0.150000X0*%
%TD*%
%TA.AperFunction,SMDPad,CuDef*%
%ADD20RoundRect,0.250000X0.362500X1.425000X-0.362500X1.425000X-0.362500X-1.425000X0.362500X-1.425000X0*%
%TD*%
%TA.AperFunction,SMDPad,CuDef*%
%ADD21R,0.450000X1.500000*%
%TD*%
%TA.AperFunction,HeatsinkPad*%
%ADD22O,1.800000X1.100000*%
%TD*%
%TA.AperFunction,HeatsinkPad*%
%ADD23O,2.200000X1.100000*%
%TD*%
%TA.AperFunction,ComponentPad*%
%ADD24R,1.800000X1.800000*%
%TD*%
%TA.AperFunction,ComponentPad*%
%ADD25C,1.800000*%
%TD*%
%TA.AperFunction,ComponentPad*%
%ADD26R,2.540000X2.540000*%
%TD*%
%TA.AperFunction,ComponentPad*%
%ADD27C,2.540000*%
%TD*%
%TA.AperFunction,Conductor*%
%ADD28C,0.200000*%
%TD*%
G04 APERTURE END LIST*
D10*
%TO.P,L2,1,1*%
%TO.N,Net-(D2-A)*%
X187750000Y-114149219D03*
%TO.P,L2,2,2*%
%TO.N,GND*%
X192750000Y-114149219D03*
%TD*%
D11*
%TO.P,Q1,1,E*%
%TO.N,Net-(Q1-E)*%
X160225000Y-117875000D03*
D12*
%TO.P,Q1,2,C*%
%TO.N,GND*%
X162505000Y-117875000D03*
%TO.P,Q1,3,B*%
%TO.N,Net-(Q1-B)*%
X164785000Y-117875000D03*
%TD*%
D13*
%TO.P,U2,1,GND*%
%TO.N,Net-(U2-GND)*%
X149250000Y-105650000D03*
%TO.P,U2,2,VO*%
%TO.N,Net-(U1-VCC)*%
X149250000Y-107950000D03*
D14*
X155550000Y-107950000D03*
D13*
%TO.P,U2,3,VI*%
%TO.N,Net-(BT1-+)*%
X149250000Y-110250000D03*
%TD*%
D15*
%TO.P,R2,1*%
%TO.N,Net-(U1-VCC)*%
X159037500Y-111250000D03*
%TO.P,R2,2*%
%TO.N,Net-(D1-A)*%
X164962500Y-111250000D03*
%TD*%
D16*
%TO.P,C3,1*%
%TO.N,Net-(BT1-+)*%
X129400000Y-109000000D03*
%TO.P,C3,2*%
%TO.N,Net-(U2-GND)*%
X135100000Y-109000000D03*
%TD*%
D17*
%TO.P,D2,1,K*%
%TO.N,Net-(D2-K)*%
X195920000Y-110500000D03*
D18*
%TO.P,D2,2,A*%
%TO.N,Net-(D2-A)*%
X206080000Y-110500000D03*
%TD*%
D19*
%TO.P,U1,1,GND*%
%TO.N,GND*%
X142775000Y-115095000D03*
%TO.P,U1,2,TR*%
%TO.N,Net-(U1-THR)*%
X142775000Y-116365000D03*
%TO.P,U1,3,Q*%
%TO.N,Net-(U1-Q)*%
X142775000Y-117635000D03*
%TO.P,U1,4,R*%
%TO.N,+5V*%
X142775000Y-118905000D03*
%TO.P,U1,5,CV*%
%TO.N,Net-(U1-CV)*%
X147725000Y-118905000D03*
%TO.P,U1,6,THR*%
%TO.N,Net-(U1-THR)*%
X147725000Y-117635000D03*
%TO.P,U1,7,DIS*%
%TO.N,GND*%
X147725000Y-116365000D03*
%TO.P,U1,8,VCC*%
%TO.N,Net-(U1-VCC)*%
X147725000Y-115095000D03*
%TD*%
D20*
%TO.P,R1,1*%
%TO.N,Net-(Q1-B)*%
X156500000Y-117750000D03*
%TO.P,R1,2*%
%TO.N,Net-(U1-Q)*%
X150575000Y-117750000D03*
%TD*%
D10*
%TO.P,L1,1,1*%
%TO.N,Net-(Q1-E)*%
X171000000Y-114399219D03*
%TO.P,L1,2,2*%
%TO.N,+5V*%
X176000000Y-114399219D03*
%TD*%
D21*
%TO.P,J3,1,VBUS*%
%TO.N,Net-(BT1-+)*%
X140950000Y-106850000D03*
%TO.P,J3,2,D-*%
%TO.N,unconnected-(J3-D--Pad2)*%
X141600000Y-106850000D03*
%TO.P,J3,3,D+*%
%TO.N,unconnected-(J3-D+-Pad3)*%
X142250000Y-106850000D03*
%TO.P,J3,4,ID*%
%TO.N,unconnected-(J3-ID-Pad4)*%
X142900000Y-106850000D03*
%TO.P,J3,5,GND*%
%TO.N,GND*%
X143550000Y-106850000D03*
D22*
%TO.P,J3,6,Shield*%
%TO.N,unconnected-(J3-Shield-Pad6)_1*%
X139450000Y-106600000D03*
D23*
%TO.N,unconnected-(J3-Shield-Pad6)*%
X142250000Y-108750000D03*
D22*
%TO.N,unconnected-(J3-Shield-Pad6)_2*%
X145050000Y-106600000D03*
%TD*%
D24*
%TO.P,D1,1,K*%
%TO.N,GND*%
X171020000Y-108835000D03*
D25*
%TO.P,D1,2,A*%
%TO.N,Net-(D1-A)*%
X168480000Y-108835000D03*
%TD*%
D16*
%TO.P,C5,1*%
%TO.N,Net-(D2-K)*%
X196650000Y-115750000D03*
%TO.P,C5,2*%
%TO.N,GND*%
X202350000Y-115750000D03*
%TD*%
D26*
%TO.P,BT1,1,+*%
%TO.N,Net-(BT1-+)*%
X108767800Y-113500000D03*
D27*
%TO.P,BT1,2,-*%
%TO.N,GND*%
X118750000Y-113500000D03*
%TD*%
D16*
%TO.P,C4,1*%
%TO.N,GND*%
X134050000Y-117500000D03*
%TO.P,C4,2*%
%TO.N,Net-(U1-CV)*%
X139750000Y-117500000D03*
%TD*%
D28*
%TO.N,Net-(BT1-+)*%
X145999000Y-105749000D02*
X147250000Y-107000000D01*
X140750000Y-105750000D02*
X141074000Y-106074000D01*
X141074000Y-106074000D02*
X141074000Y-106726000D01*
X132650000Y-105750000D02*
X140750000Y-105750000D01*
X141101000Y-105749000D02*
X145999000Y-105749000D01*
X141074000Y-106726000D02*
X140950000Y-106850000D01*
X140950000Y-106850000D02*
X140950000Y-105900000D01*
X147250000Y-107000000D02*
X147250000Y-108250000D01*
X147250000Y-108250000D02*
X149250000Y-110250000D01*
X129400000Y-109000000D02*
X132650000Y-105750000D01*
X140950000Y-105900000D02*
X141101000Y-105749000D01*
X108767800Y-113500000D02*
X113267800Y-109000000D01*
X113267800Y-109000000D02*
X129400000Y-109000000D01*
%TO.N,GND*%
X148699999Y-116365000D02*
X147725000Y-116365000D01*
X174746500Y-115052585D02*
X174763017Y-115069102D01*
X150250000Y-115500000D02*
X149750000Y-116000000D01*
X168250000Y-111605000D02*
X171020000Y-108835000D01*
X149750000Y-114000000D02*
X149250000Y-113500000D01*
X189100781Y-110500000D02*
X187600781Y-112000000D01*
X163706000Y-119076000D02*
X162505000Y-117875000D01*
X144500000Y-107800000D02*
X143550000Y-106850000D01*
X187600781Y-112000000D02*
X168000000Y-112000000D01*
X136455000Y-115095000D02*
X134050000Y-117500000D01*
X168250000Y-112000000D02*
X173000000Y-112000000D01*
X149750000Y-116000000D02*
X149750000Y-114000000D01*
X155500000Y-115500000D02*
X150250000Y-115500000D01*
X200749219Y-114149219D02*
X192750000Y-114149219D01*
X168000000Y-112000000D02*
X168250000Y-112000000D01*
X144500000Y-113500000D02*
X144500000Y-107800000D01*
X202350000Y-115750000D02*
X200749219Y-114149219D01*
X144370000Y-113500000D02*
X142775000Y-115095000D01*
X170756119Y-119076000D02*
X163706000Y-119076000D01*
X149250000Y-113500000D02*
X144500000Y-113500000D01*
X144500000Y-113500000D02*
X144370000Y-113500000D01*
X162505000Y-117875000D02*
X162505000Y-120349000D01*
X148090000Y-116000000D02*
X149750000Y-116000000D01*
X155500000Y-119323660D02*
X155500000Y-115500000D01*
X192750000Y-114149219D02*
X189100781Y-110500000D01*
X162505000Y-120349000D02*
X156525340Y-120349000D01*
X174763017Y-115069102D02*
X170756119Y-119076000D01*
X156525340Y-120349000D02*
X155500000Y-119323660D01*
X122750000Y-117500000D02*
X118750000Y-113500000D01*
X168250000Y-112000000D02*
X168250000Y-111605000D01*
X149661500Y-116088500D02*
X149750000Y-116000000D01*
X142775000Y-115095000D02*
X136455000Y-115095000D01*
X134050000Y-117500000D02*
X122750000Y-117500000D01*
X147725000Y-116365000D02*
X148090000Y-116000000D01*
X174746500Y-113746499D02*
X174746500Y-115052585D01*
X173000000Y-112000000D02*
X174746500Y-113746499D01*
%TO.N,Net-(U2-GND)*%
X107196800Y-110553200D02*
X113500000Y-104250000D01*
X135100000Y-109000000D02*
X133100000Y-111000000D01*
X113500000Y-104250000D02*
X147850000Y-104250000D01*
X147850000Y-104250000D02*
X149250000Y-105650000D01*
X107196800Y-115071000D02*
X107196800Y-110553200D01*
X110338800Y-115071000D02*
X107196800Y-115071000D01*
X114409800Y-111000000D02*
X110338800Y-115071000D01*
X133100000Y-111000000D02*
X114409800Y-111000000D01*
%TO.N,Net-(U1-CV)*%
X141756000Y-119506000D02*
X139750000Y-117500000D01*
X147725000Y-118905000D02*
X147124000Y-119506000D01*
X147124000Y-119506000D02*
X141756000Y-119506000D01*
%TO.N,Net-(D2-K)*%
X196650000Y-115750000D02*
X196650000Y-117650000D01*
X196000000Y-108500000D02*
X195920000Y-108580000D01*
X196750000Y-117750000D02*
X203500000Y-117750000D01*
X208000000Y-112250000D02*
X208000000Y-108750000D01*
X208000000Y-108750000D02*
X196250000Y-108750000D01*
X207750000Y-112500000D02*
X208000000Y-112250000D01*
X196250000Y-108750000D02*
X196000000Y-108500000D01*
X203750000Y-112750000D02*
X204000000Y-112500000D01*
X203750000Y-117500000D02*
X203750000Y-112750000D01*
X204000000Y-112500000D02*
X207750000Y-112500000D01*
X195920000Y-108580000D02*
X195920000Y-110500000D01*
X196650000Y-117650000D02*
X196750000Y-117750000D01*
X203500000Y-117750000D02*
X203750000Y-117500000D01*
%TO.N,Net-(D1-A)*%
X164962500Y-111250000D02*
X166065000Y-111250000D01*
X166065000Y-111250000D02*
X168480000Y-108835000D01*
X165212500Y-111000000D02*
X164962500Y-111250000D01*
%TO.N,Net-(D2-A)*%
X194519000Y-111901000D02*
X204679000Y-111901000D01*
X208401000Y-113416100D02*
X208401000Y-108583900D01*
X204679000Y-111901000D02*
X206080000Y-110500000D01*
X208401000Y-108583900D02*
X207916100Y-108099000D01*
X187750000Y-114149219D02*
X191751781Y-118151000D01*
X194519000Y-109099000D02*
X194519000Y-111901000D01*
X203666100Y-118151000D02*
X208401000Y-113416100D01*
X207916100Y-108099000D02*
X195519000Y-108099000D01*
X191751781Y-118151000D02*
X203666100Y-118151000D01*
X195519000Y-108099000D02*
X194519000Y-109099000D01*
%TO.N,Net-(Q1-E)*%
X160225000Y-114775000D02*
X160600781Y-114399219D01*
X160225000Y-117875000D02*
X160225000Y-114775000D01*
X160600781Y-114399219D02*
X171000000Y-114399219D01*
%TO.N,+5V*%
X143250000Y-120750000D02*
X143250000Y-123250000D01*
X141784000Y-117034000D02*
X141759032Y-117034000D01*
X143250000Y-120750000D02*
X169649219Y-120750000D01*
X141499000Y-118603999D02*
X141800001Y-118905000D01*
X138500000Y-121750000D02*
X138500000Y-116000000D01*
X140674032Y-115949000D02*
X141499000Y-116773968D01*
X138000000Y-123250000D02*
X137500000Y-122750000D01*
X169649219Y-120750000D02*
X176000000Y-114399219D01*
X141499000Y-117294032D02*
X141499000Y-118603999D01*
X141499000Y-116773968D02*
X141759032Y-117034000D01*
X143250000Y-123250000D02*
X138000000Y-123250000D01*
X141800001Y-118905000D02*
X142775000Y-118905000D01*
X137500000Y-122750000D02*
X138500000Y-121750000D01*
X141759032Y-117034000D02*
X141499000Y-117294032D01*
X138551000Y-115949000D02*
X140674032Y-115949000D01*
X138500000Y-116000000D02*
X138551000Y-115949000D01*
%TO.N,Net-(Q1-B)*%
X172253500Y-115052585D02*
X172253500Y-113745853D01*
X171970866Y-113463219D02*
X154861781Y-113463219D01*
X164785000Y-117875000D02*
X169431085Y-117875000D01*
X172253500Y-113745853D02*
X171970866Y-113463219D01*
X156500000Y-115101438D02*
X156500000Y-117750000D01*
X154861781Y-113463219D02*
X156500000Y-115101438D01*
X169431085Y-117875000D02*
X172253500Y-115052585D01*
%TO.N,Net-(U1-Q)*%
X142775000Y-117635000D02*
X142885000Y-117635000D01*
X150089000Y-118236000D02*
X150575000Y-117750000D01*
X142885000Y-117635000D02*
X143000000Y-117750000D01*
X142775000Y-117635000D02*
X143376000Y-118236000D01*
X143376000Y-118236000D02*
X150089000Y-118236000D01*
%TO.N,Net-(U1-VCC)*%
X159037500Y-111250000D02*
X155737500Y-107950000D01*
X144051000Y-115250000D02*
X144051000Y-115435968D01*
X137754000Y-115496000D02*
X135001000Y-118249000D01*
X147725000Y-115095000D02*
X147570000Y-115250000D01*
X135001000Y-119051000D02*
X107551000Y-119051000D01*
X105750000Y-110500000D02*
X113250000Y-103000000D01*
X141759032Y-115696000D02*
X141559032Y-115496000D01*
X150750000Y-106450000D02*
X149250000Y-107950000D01*
X147570000Y-115250000D02*
X144051000Y-115250000D01*
X144051000Y-115435968D02*
X143790968Y-115696000D01*
X155550000Y-107950000D02*
X149250000Y-107950000D01*
X135001000Y-118249000D02*
X135001000Y-119051000D01*
X105750000Y-117250000D02*
X105750000Y-110500000D01*
X113250000Y-103000000D02*
X148556008Y-103000000D01*
X141559032Y-115496000D02*
X137754000Y-115496000D01*
X155737500Y-107950000D02*
X155550000Y-107950000D01*
X107551000Y-119051000D02*
X105750000Y-117250000D01*
X148556008Y-103000000D02*
X150750000Y-105193992D01*
X150750000Y-105193992D02*
X150750000Y-106450000D01*
X143790968Y-115696000D02*
X141759032Y-115696000D01*
%TO.N,Net-(U1-THR)*%
X146449000Y-116705968D02*
X147378032Y-117635000D01*
X146449000Y-116250000D02*
X146449000Y-116705968D01*
X146334000Y-116365000D02*
X146449000Y-116250000D01*
X147378032Y-117635000D02*
X147725000Y-117635000D01*
X142775000Y-116365000D02*
X146334000Y-116365000D01*
%TD*%
M02*
