%TF.GenerationSoftware,KiCad,Pcbnew,9.0.0*%
%TF.CreationDate,2025-04-02T18:46:55+01:00*%
%TF.ProjectId,Wireless_power_Transfer,57697265-6c65-4737-935f-706f7765725f,rev?*%
%TF.SameCoordinates,Original*%
%TF.FileFunction,Legend,Top*%
%TF.FilePolarity,Positive*%
%FSLAX46Y46*%
G04 Gerber Fmt 4.6, Leading zero omitted, Abs format (unit mm)*
G04 Created by KiCad (PCBNEW 9.0.0) date 2025-04-02 18:46:55*
%MOMM*%
%LPD*%
G01*
G04 APERTURE LIST*
%ADD10C,0.100000*%
%ADD11C,0.150000*%
%ADD12C,0.500000*%
%ADD13C,0.120000*%
G04 APERTURE END LIST*
D10*
X190083333Y-109106638D02*
X189607143Y-109106638D01*
X189607143Y-109106638D02*
X189607143Y-108106638D01*
X190369048Y-108201876D02*
X190416667Y-108154257D01*
X190416667Y-108154257D02*
X190511905Y-108106638D01*
X190511905Y-108106638D02*
X190750000Y-108106638D01*
X190750000Y-108106638D02*
X190845238Y-108154257D01*
X190845238Y-108154257D02*
X190892857Y-108201876D01*
X190892857Y-108201876D02*
X190940476Y-108297114D01*
X190940476Y-108297114D02*
X190940476Y-108392352D01*
X190940476Y-108392352D02*
X190892857Y-108535209D01*
X190892857Y-108535209D02*
X190321429Y-109106638D01*
X190321429Y-109106638D02*
X190940476Y-109106638D01*
D11*
X162409761Y-115305057D02*
X162314523Y-115257438D01*
X162314523Y-115257438D02*
X162219285Y-115162200D01*
X162219285Y-115162200D02*
X162076428Y-115019342D01*
X162076428Y-115019342D02*
X161981190Y-114971723D01*
X161981190Y-114971723D02*
X161885952Y-114971723D01*
X161933571Y-115209819D02*
X161838333Y-115162200D01*
X161838333Y-115162200D02*
X161743095Y-115066961D01*
X161743095Y-115066961D02*
X161695476Y-114876485D01*
X161695476Y-114876485D02*
X161695476Y-114543152D01*
X161695476Y-114543152D02*
X161743095Y-114352676D01*
X161743095Y-114352676D02*
X161838333Y-114257438D01*
X161838333Y-114257438D02*
X161933571Y-114209819D01*
X161933571Y-114209819D02*
X162124047Y-114209819D01*
X162124047Y-114209819D02*
X162219285Y-114257438D01*
X162219285Y-114257438D02*
X162314523Y-114352676D01*
X162314523Y-114352676D02*
X162362142Y-114543152D01*
X162362142Y-114543152D02*
X162362142Y-114876485D01*
X162362142Y-114876485D02*
X162314523Y-115066961D01*
X162314523Y-115066961D02*
X162219285Y-115162200D01*
X162219285Y-115162200D02*
X162124047Y-115209819D01*
X162124047Y-115209819D02*
X161933571Y-115209819D01*
X163314523Y-115209819D02*
X162743095Y-115209819D01*
X163028809Y-115209819D02*
X163028809Y-114209819D01*
X163028809Y-114209819D02*
X162933571Y-114352676D01*
X162933571Y-114352676D02*
X162838333Y-114447914D01*
X162838333Y-114447914D02*
X162743095Y-114495533D01*
X152138095Y-104054819D02*
X152138095Y-104864342D01*
X152138095Y-104864342D02*
X152185714Y-104959580D01*
X152185714Y-104959580D02*
X152233333Y-105007200D01*
X152233333Y-105007200D02*
X152328571Y-105054819D01*
X152328571Y-105054819D02*
X152519047Y-105054819D01*
X152519047Y-105054819D02*
X152614285Y-105007200D01*
X152614285Y-105007200D02*
X152661904Y-104959580D01*
X152661904Y-104959580D02*
X152709523Y-104864342D01*
X152709523Y-104864342D02*
X152709523Y-104054819D01*
X153138095Y-104150057D02*
X153185714Y-104102438D01*
X153185714Y-104102438D02*
X153280952Y-104054819D01*
X153280952Y-104054819D02*
X153519047Y-104054819D01*
X153519047Y-104054819D02*
X153614285Y-104102438D01*
X153614285Y-104102438D02*
X153661904Y-104150057D01*
X153661904Y-104150057D02*
X153709523Y-104245295D01*
X153709523Y-104245295D02*
X153709523Y-104340533D01*
X153709523Y-104340533D02*
X153661904Y-104483390D01*
X153661904Y-104483390D02*
X153090476Y-105054819D01*
X153090476Y-105054819D02*
X153709523Y-105054819D01*
X161833333Y-109084819D02*
X161500000Y-108608628D01*
X161261905Y-109084819D02*
X161261905Y-108084819D01*
X161261905Y-108084819D02*
X161642857Y-108084819D01*
X161642857Y-108084819D02*
X161738095Y-108132438D01*
X161738095Y-108132438D02*
X161785714Y-108180057D01*
X161785714Y-108180057D02*
X161833333Y-108275295D01*
X161833333Y-108275295D02*
X161833333Y-108418152D01*
X161833333Y-108418152D02*
X161785714Y-108513390D01*
X161785714Y-108513390D02*
X161738095Y-108561009D01*
X161738095Y-108561009D02*
X161642857Y-108608628D01*
X161642857Y-108608628D02*
X161261905Y-108608628D01*
X162214286Y-108180057D02*
X162261905Y-108132438D01*
X162261905Y-108132438D02*
X162357143Y-108084819D01*
X162357143Y-108084819D02*
X162595238Y-108084819D01*
X162595238Y-108084819D02*
X162690476Y-108132438D01*
X162690476Y-108132438D02*
X162738095Y-108180057D01*
X162738095Y-108180057D02*
X162785714Y-108275295D01*
X162785714Y-108275295D02*
X162785714Y-108370533D01*
X162785714Y-108370533D02*
X162738095Y-108513390D01*
X162738095Y-108513390D02*
X162166667Y-109084819D01*
X162166667Y-109084819D02*
X162785714Y-109084819D01*
X132083333Y-106009580D02*
X132035714Y-106057200D01*
X132035714Y-106057200D02*
X131892857Y-106104819D01*
X131892857Y-106104819D02*
X131797619Y-106104819D01*
X131797619Y-106104819D02*
X131654762Y-106057200D01*
X131654762Y-106057200D02*
X131559524Y-105961961D01*
X131559524Y-105961961D02*
X131511905Y-105866723D01*
X131511905Y-105866723D02*
X131464286Y-105676247D01*
X131464286Y-105676247D02*
X131464286Y-105533390D01*
X131464286Y-105533390D02*
X131511905Y-105342914D01*
X131511905Y-105342914D02*
X131559524Y-105247676D01*
X131559524Y-105247676D02*
X131654762Y-105152438D01*
X131654762Y-105152438D02*
X131797619Y-105104819D01*
X131797619Y-105104819D02*
X131892857Y-105104819D01*
X131892857Y-105104819D02*
X132035714Y-105152438D01*
X132035714Y-105152438D02*
X132083333Y-105200057D01*
X132416667Y-105104819D02*
X133035714Y-105104819D01*
X133035714Y-105104819D02*
X132702381Y-105485771D01*
X132702381Y-105485771D02*
X132845238Y-105485771D01*
X132845238Y-105485771D02*
X132940476Y-105533390D01*
X132940476Y-105533390D02*
X132988095Y-105581009D01*
X132988095Y-105581009D02*
X133035714Y-105676247D01*
X133035714Y-105676247D02*
X133035714Y-105914342D01*
X133035714Y-105914342D02*
X132988095Y-106009580D01*
X132988095Y-106009580D02*
X132940476Y-106057200D01*
X132940476Y-106057200D02*
X132845238Y-106104819D01*
X132845238Y-106104819D02*
X132559524Y-106104819D01*
X132559524Y-106104819D02*
X132464286Y-106057200D01*
X132464286Y-106057200D02*
X132416667Y-106009580D01*
X200261905Y-108484819D02*
X200261905Y-107484819D01*
X200261905Y-107484819D02*
X200500000Y-107484819D01*
X200500000Y-107484819D02*
X200642857Y-107532438D01*
X200642857Y-107532438D02*
X200738095Y-107627676D01*
X200738095Y-107627676D02*
X200785714Y-107722914D01*
X200785714Y-107722914D02*
X200833333Y-107913390D01*
X200833333Y-107913390D02*
X200833333Y-108056247D01*
X200833333Y-108056247D02*
X200785714Y-108246723D01*
X200785714Y-108246723D02*
X200738095Y-108341961D01*
X200738095Y-108341961D02*
X200642857Y-108437200D01*
X200642857Y-108437200D02*
X200500000Y-108484819D01*
X200500000Y-108484819D02*
X200261905Y-108484819D01*
X201214286Y-107580057D02*
X201261905Y-107532438D01*
X201261905Y-107532438D02*
X201357143Y-107484819D01*
X201357143Y-107484819D02*
X201595238Y-107484819D01*
X201595238Y-107484819D02*
X201690476Y-107532438D01*
X201690476Y-107532438D02*
X201738095Y-107580057D01*
X201738095Y-107580057D02*
X201785714Y-107675295D01*
X201785714Y-107675295D02*
X201785714Y-107770533D01*
X201785714Y-107770533D02*
X201738095Y-107913390D01*
X201738095Y-107913390D02*
X201166667Y-108484819D01*
X201166667Y-108484819D02*
X201785714Y-108484819D01*
X195658095Y-108854819D02*
X195658095Y-107854819D01*
X196229523Y-108854819D02*
X195800952Y-108283390D01*
X196229523Y-107854819D02*
X195658095Y-108426247D01*
X144488095Y-113054819D02*
X144488095Y-113864342D01*
X144488095Y-113864342D02*
X144535714Y-113959580D01*
X144535714Y-113959580D02*
X144583333Y-114007200D01*
X144583333Y-114007200D02*
X144678571Y-114054819D01*
X144678571Y-114054819D02*
X144869047Y-114054819D01*
X144869047Y-114054819D02*
X144964285Y-114007200D01*
X144964285Y-114007200D02*
X145011904Y-113959580D01*
X145011904Y-113959580D02*
X145059523Y-113864342D01*
X145059523Y-113864342D02*
X145059523Y-113054819D01*
X146059523Y-114054819D02*
X145488095Y-114054819D01*
X145773809Y-114054819D02*
X145773809Y-113054819D01*
X145773809Y-113054819D02*
X145678571Y-113197676D01*
X145678571Y-113197676D02*
X145583333Y-113292914D01*
X145583333Y-113292914D02*
X145488095Y-113340533D01*
X153370833Y-120824819D02*
X153037500Y-120348628D01*
X152799405Y-120824819D02*
X152799405Y-119824819D01*
X152799405Y-119824819D02*
X153180357Y-119824819D01*
X153180357Y-119824819D02*
X153275595Y-119872438D01*
X153275595Y-119872438D02*
X153323214Y-119920057D01*
X153323214Y-119920057D02*
X153370833Y-120015295D01*
X153370833Y-120015295D02*
X153370833Y-120158152D01*
X153370833Y-120158152D02*
X153323214Y-120253390D01*
X153323214Y-120253390D02*
X153275595Y-120301009D01*
X153275595Y-120301009D02*
X153180357Y-120348628D01*
X153180357Y-120348628D02*
X152799405Y-120348628D01*
X154323214Y-120824819D02*
X153751786Y-120824819D01*
X154037500Y-120824819D02*
X154037500Y-119824819D01*
X154037500Y-119824819D02*
X153942262Y-119967676D01*
X153942262Y-119967676D02*
X153847024Y-120062914D01*
X153847024Y-120062914D02*
X153751786Y-120110533D01*
D10*
X173333333Y-109356638D02*
X172857143Y-109356638D01*
X172857143Y-109356638D02*
X172857143Y-108356638D01*
X174190476Y-109356638D02*
X173619048Y-109356638D01*
X173904762Y-109356638D02*
X173904762Y-108356638D01*
X173904762Y-108356638D02*
X173809524Y-108499495D01*
X173809524Y-108499495D02*
X173714286Y-108594733D01*
X173714286Y-108594733D02*
X173619048Y-108642352D01*
D11*
X141916666Y-104279819D02*
X141916666Y-104994104D01*
X141916666Y-104994104D02*
X141869047Y-105136961D01*
X141869047Y-105136961D02*
X141773809Y-105232200D01*
X141773809Y-105232200D02*
X141630952Y-105279819D01*
X141630952Y-105279819D02*
X141535714Y-105279819D01*
X142297619Y-104279819D02*
X142916666Y-104279819D01*
X142916666Y-104279819D02*
X142583333Y-104660771D01*
X142583333Y-104660771D02*
X142726190Y-104660771D01*
X142726190Y-104660771D02*
X142821428Y-104708390D01*
X142821428Y-104708390D02*
X142869047Y-104756009D01*
X142869047Y-104756009D02*
X142916666Y-104851247D01*
X142916666Y-104851247D02*
X142916666Y-105089342D01*
X142916666Y-105089342D02*
X142869047Y-105184580D01*
X142869047Y-105184580D02*
X142821428Y-105232200D01*
X142821428Y-105232200D02*
X142726190Y-105279819D01*
X142726190Y-105279819D02*
X142440476Y-105279819D01*
X142440476Y-105279819D02*
X142345238Y-105232200D01*
X142345238Y-105232200D02*
X142297619Y-105184580D01*
X169011905Y-111249819D02*
X169011905Y-110249819D01*
X169011905Y-110249819D02*
X169250000Y-110249819D01*
X169250000Y-110249819D02*
X169392857Y-110297438D01*
X169392857Y-110297438D02*
X169488095Y-110392676D01*
X169488095Y-110392676D02*
X169535714Y-110487914D01*
X169535714Y-110487914D02*
X169583333Y-110678390D01*
X169583333Y-110678390D02*
X169583333Y-110821247D01*
X169583333Y-110821247D02*
X169535714Y-111011723D01*
X169535714Y-111011723D02*
X169488095Y-111106961D01*
X169488095Y-111106961D02*
X169392857Y-111202200D01*
X169392857Y-111202200D02*
X169250000Y-111249819D01*
X169250000Y-111249819D02*
X169011905Y-111249819D01*
X170535714Y-111249819D02*
X169964286Y-111249819D01*
X170250000Y-111249819D02*
X170250000Y-110249819D01*
X170250000Y-110249819D02*
X170154762Y-110392676D01*
X170154762Y-110392676D02*
X170059524Y-110487914D01*
X170059524Y-110487914D02*
X169964286Y-110535533D01*
X199333333Y-112759580D02*
X199285714Y-112807200D01*
X199285714Y-112807200D02*
X199142857Y-112854819D01*
X199142857Y-112854819D02*
X199047619Y-112854819D01*
X199047619Y-112854819D02*
X198904762Y-112807200D01*
X198904762Y-112807200D02*
X198809524Y-112711961D01*
X198809524Y-112711961D02*
X198761905Y-112616723D01*
X198761905Y-112616723D02*
X198714286Y-112426247D01*
X198714286Y-112426247D02*
X198714286Y-112283390D01*
X198714286Y-112283390D02*
X198761905Y-112092914D01*
X198761905Y-112092914D02*
X198809524Y-111997676D01*
X198809524Y-111997676D02*
X198904762Y-111902438D01*
X198904762Y-111902438D02*
X199047619Y-111854819D01*
X199047619Y-111854819D02*
X199142857Y-111854819D01*
X199142857Y-111854819D02*
X199285714Y-111902438D01*
X199285714Y-111902438D02*
X199333333Y-111950057D01*
X200238095Y-111854819D02*
X199761905Y-111854819D01*
X199761905Y-111854819D02*
X199714286Y-112331009D01*
X199714286Y-112331009D02*
X199761905Y-112283390D01*
X199761905Y-112283390D02*
X199857143Y-112235771D01*
X199857143Y-112235771D02*
X200095238Y-112235771D01*
X200095238Y-112235771D02*
X200190476Y-112283390D01*
X200190476Y-112283390D02*
X200238095Y-112331009D01*
X200238095Y-112331009D02*
X200285714Y-112426247D01*
X200285714Y-112426247D02*
X200285714Y-112664342D01*
X200285714Y-112664342D02*
X200238095Y-112759580D01*
X200238095Y-112759580D02*
X200190476Y-112807200D01*
X200190476Y-112807200D02*
X200095238Y-112854819D01*
X200095238Y-112854819D02*
X199857143Y-112854819D01*
X199857143Y-112854819D02*
X199761905Y-112807200D01*
X199761905Y-112807200D02*
X199714286Y-112759580D01*
X107982085Y-109931009D02*
X108124942Y-109978628D01*
X108124942Y-109978628D02*
X108172561Y-110026247D01*
X108172561Y-110026247D02*
X108220180Y-110121485D01*
X108220180Y-110121485D02*
X108220180Y-110264342D01*
X108220180Y-110264342D02*
X108172561Y-110359580D01*
X108172561Y-110359580D02*
X108124942Y-110407200D01*
X108124942Y-110407200D02*
X108029704Y-110454819D01*
X108029704Y-110454819D02*
X107648752Y-110454819D01*
X107648752Y-110454819D02*
X107648752Y-109454819D01*
X107648752Y-109454819D02*
X107982085Y-109454819D01*
X107982085Y-109454819D02*
X108077323Y-109502438D01*
X108077323Y-109502438D02*
X108124942Y-109550057D01*
X108124942Y-109550057D02*
X108172561Y-109645295D01*
X108172561Y-109645295D02*
X108172561Y-109740533D01*
X108172561Y-109740533D02*
X108124942Y-109835771D01*
X108124942Y-109835771D02*
X108077323Y-109883390D01*
X108077323Y-109883390D02*
X107982085Y-109931009D01*
X107982085Y-109931009D02*
X107648752Y-109931009D01*
X108505895Y-109454819D02*
X109077323Y-109454819D01*
X108791609Y-110454819D02*
X108791609Y-109454819D01*
X109934466Y-110454819D02*
X109363038Y-110454819D01*
X109648752Y-110454819D02*
X109648752Y-109454819D01*
X109648752Y-109454819D02*
X109553514Y-109597676D01*
X109553514Y-109597676D02*
X109458276Y-109692914D01*
X109458276Y-109692914D02*
X109363038Y-109740533D01*
X136733333Y-114509580D02*
X136685714Y-114557200D01*
X136685714Y-114557200D02*
X136542857Y-114604819D01*
X136542857Y-114604819D02*
X136447619Y-114604819D01*
X136447619Y-114604819D02*
X136304762Y-114557200D01*
X136304762Y-114557200D02*
X136209524Y-114461961D01*
X136209524Y-114461961D02*
X136161905Y-114366723D01*
X136161905Y-114366723D02*
X136114286Y-114176247D01*
X136114286Y-114176247D02*
X136114286Y-114033390D01*
X136114286Y-114033390D02*
X136161905Y-113842914D01*
X136161905Y-113842914D02*
X136209524Y-113747676D01*
X136209524Y-113747676D02*
X136304762Y-113652438D01*
X136304762Y-113652438D02*
X136447619Y-113604819D01*
X136447619Y-113604819D02*
X136542857Y-113604819D01*
X136542857Y-113604819D02*
X136685714Y-113652438D01*
X136685714Y-113652438D02*
X136733333Y-113700057D01*
X137590476Y-113938152D02*
X137590476Y-114604819D01*
X137352381Y-113557200D02*
X137114286Y-114271485D01*
X137114286Y-114271485D02*
X137733333Y-114271485D01*
D12*
%TO.C,L2*%
X191250000Y-114149219D02*
G75*
G02*
X189250000Y-114149219I-1000000J0D01*
G01*
X189250000Y-114149219D02*
G75*
G02*
X191250000Y-114149219I1000000J0D01*
G01*
X192371320Y-114149219D02*
G75*
G02*
X188128680Y-114149219I-2121320J0D01*
G01*
X188128680Y-114149219D02*
G75*
G02*
X192371320Y-114149219I2121320J0D01*
G01*
X193451562Y-114149219D02*
G75*
G02*
X187048438Y-114149219I-3201562J0D01*
G01*
X187048438Y-114149219D02*
G75*
G02*
X193451562Y-114149219I3201562J0D01*
G01*
D13*
%TO.C,Q1*%
X158384000Y-115755000D02*
X158384000Y-119245000D01*
X158384000Y-115755000D02*
X166625000Y-115755000D01*
X158384000Y-119245000D02*
X166625000Y-119245000D01*
X160905000Y-115755000D02*
X160905000Y-116825000D01*
X160905000Y-118925000D02*
X160905000Y-119245000D01*
X164105000Y-115755000D02*
X164105000Y-116825000D01*
X164105000Y-118925000D02*
X164105000Y-119245000D01*
X166625000Y-115755000D02*
X166625000Y-119245000D01*
%TO.C,U2*%
X150550000Y-104540000D02*
X154310000Y-104540000D01*
X150550000Y-111360000D02*
X154310000Y-111360000D01*
X154310000Y-104540000D02*
X154310000Y-105800000D01*
X154310000Y-111360000D02*
X154310000Y-110100000D01*
X149270000Y-104640000D02*
X149030000Y-104310000D01*
X149510000Y-104310000D01*
X149270000Y-104640000D01*
G36*
X149270000Y-104640000D02*
G01*
X149030000Y-104310000D01*
X149510000Y-104310000D01*
X149270000Y-104640000D01*
G37*
%TO.C,R2*%
X159822936Y-109540000D02*
X164177064Y-109540000D01*
X159822936Y-112960000D02*
X164177064Y-112960000D01*
%TO.C,C3*%
X129450000Y-106800000D02*
X129450000Y-107300000D01*
X129450000Y-106800000D02*
X129950000Y-106800000D01*
X129450000Y-111200000D02*
X129450000Y-110700000D01*
X129450000Y-111200000D02*
X129950000Y-111200000D01*
X135050000Y-106800000D02*
X134550000Y-106800000D01*
X135050000Y-106800000D02*
X135050000Y-107300000D01*
X135050000Y-111200000D02*
X134550000Y-111200000D01*
X135050000Y-111200000D02*
X135050000Y-110700000D01*
%TO.C,D2*%
X197260000Y-110500000D02*
X198280000Y-110500000D01*
X198280000Y-109030000D02*
X198280000Y-111970000D01*
X198280000Y-111970000D02*
X203720000Y-111970000D01*
X199060000Y-109030000D02*
X199060000Y-111970000D01*
X199180000Y-109030000D02*
X199180000Y-111970000D01*
X199300000Y-109030000D02*
X199300000Y-111970000D01*
X203720000Y-109030000D02*
X198280000Y-109030000D01*
X203720000Y-111970000D02*
X203720000Y-109030000D01*
X204740000Y-110500000D02*
X203720000Y-110500000D01*
%TO.C,U1*%
X145250000Y-114440000D02*
X143300000Y-114440000D01*
X145250000Y-114440000D02*
X147200000Y-114440000D01*
X145250000Y-119560000D02*
X143300000Y-119560000D01*
X145250000Y-119560000D02*
X147200000Y-119560000D01*
X142550000Y-114535000D02*
X142310000Y-114205000D01*
X142790000Y-114205000D01*
X142550000Y-114535000D01*
G36*
X142550000Y-114535000D02*
G01*
X142310000Y-114205000D01*
X142790000Y-114205000D01*
X142550000Y-114535000D01*
G37*
%TO.C,R1*%
X155714564Y-116040000D02*
X151360436Y-116040000D01*
X155714564Y-119460000D02*
X151360436Y-119460000D01*
D12*
%TO.C,L1*%
X174500000Y-114399219D02*
G75*
G02*
X172500000Y-114399219I-1000000J0D01*
G01*
X172500000Y-114399219D02*
G75*
G02*
X174500000Y-114399219I1000000J0D01*
G01*
X175621320Y-114399219D02*
G75*
G02*
X171378680Y-114399219I-2121320J0D01*
G01*
X171378680Y-114399219D02*
G75*
G02*
X175621320Y-114399219I2121320J0D01*
G01*
X176701562Y-114399219D02*
G75*
G02*
X170298438Y-114399219I-3201562J0D01*
G01*
X170298438Y-114399219D02*
G75*
G02*
X176701562Y-114399219I3201562J0D01*
G01*
D13*
%TO.C,J3*%
X137940000Y-105890000D02*
X137940000Y-109810000D01*
X137940000Y-109810000D02*
X140210000Y-109810000D01*
X140210000Y-108980000D02*
X140210000Y-109810000D01*
X140210000Y-108980000D02*
X141040000Y-108980000D01*
X140250000Y-105890000D02*
X137940000Y-105890000D01*
X140550000Y-105850000D02*
X141150000Y-105850000D01*
X140550000Y-106600000D02*
X140550000Y-105850000D01*
X144250000Y-105890000D02*
X146560000Y-105890000D01*
X144290000Y-108980000D02*
X143460000Y-108980000D01*
X144290000Y-108980000D02*
X144290000Y-109810000D01*
X146560000Y-105890000D02*
X146560000Y-109810000D01*
X146560000Y-109810000D02*
X144290000Y-109810000D01*
%TO.C,D1*%
X167790000Y-106505000D02*
X168190000Y-106505000D01*
X167790000Y-107625000D02*
X167790000Y-106505000D01*
X168190000Y-106505000D02*
X168190000Y-107625000D01*
X168190000Y-107625000D02*
X167790000Y-107625000D01*
X168190000Y-107625000D02*
X168190000Y-103765000D01*
X168480000Y-107625000D02*
X168480000Y-107625000D01*
X168480000Y-107625000D02*
X168480000Y-107755000D01*
X168480000Y-107755000D02*
X168480000Y-107625000D01*
X168480000Y-107755000D02*
X168480000Y-107755000D01*
X171020000Y-107625000D02*
X171020000Y-107625000D01*
X171020000Y-107625000D02*
X171020000Y-107755000D01*
X171020000Y-107755000D02*
X171020000Y-107625000D01*
X171020000Y-107755000D02*
X171020000Y-107755000D01*
X171310000Y-107625000D02*
X168190000Y-107625000D01*
X171310000Y-107625000D02*
X171310000Y-103765000D01*
X168190000Y-103765000D02*
G75*
G02*
X171310000Y-103765000I1560000J0D01*
G01*
%TO.C,C5*%
X196700000Y-113550000D02*
X196700000Y-114050000D01*
X196700000Y-113550000D02*
X197200000Y-113550000D01*
X196700000Y-117950000D02*
X196700000Y-117450000D01*
X196700000Y-117950000D02*
X197200000Y-117950000D01*
X202300000Y-113550000D02*
X201800000Y-113550000D01*
X202300000Y-113550000D02*
X202300000Y-114050000D01*
X202300000Y-117950000D02*
X201800000Y-117950000D01*
X202300000Y-117950000D02*
X202300000Y-117450000D01*
%TO.C,BT1*%
X107142200Y-110921900D02*
X107142200Y-116078100D01*
X107142200Y-110921900D02*
X111577800Y-110921900D01*
X107142200Y-116078100D02*
X111577800Y-116078100D01*
X108767800Y-116500000D02*
X108767800Y-117500000D01*
X109267800Y-117000000D02*
X108267800Y-117000000D01*
X111577800Y-110921900D02*
G75*
G02*
X111577800Y-116078100I7172200J-2578100D01*
G01*
%TO.C,C4*%
X134100000Y-115300000D02*
X134100000Y-115800000D01*
X134100000Y-115300000D02*
X134600000Y-115300000D01*
X134100000Y-119700000D02*
X134100000Y-119200000D01*
X134100000Y-119700000D02*
X134600000Y-119700000D01*
X139700000Y-115300000D02*
X139200000Y-115300000D01*
X139700000Y-115300000D02*
X139700000Y-115800000D01*
X139700000Y-119700000D02*
X139200000Y-119700000D01*
X139700000Y-119700000D02*
X139700000Y-119200000D01*
%TD*%
M02*
