%TF.GenerationSoftware,KiCad,Pcbnew,9.0.0*%
%TF.CreationDate,2025-04-02T18:46:55+01:00*%
%TF.ProjectId,Wireless_power_Transfer,57697265-6c65-4737-935f-706f7765725f,rev?*%
%TF.SameCoordinates,Original*%
%TF.FileFunction,Soldermask,Top*%
%TF.FilePolarity,Negative*%
%FSLAX46Y46*%
G04 Gerber Fmt 4.6, Leading zero omitted, Abs format (unit mm)*
G04 Created by KiCad (PCBNEW 9.0.0) date 2025-04-02 18:46:55*
%MOMM*%
%LPD*%
G01*
G04 APERTURE LIST*
G04 APERTURE END LIST*
G36*
X151006185Y-116032969D02*
G01*
X151014858Y-116036798D01*
X151022425Y-116037901D01*
X151069723Y-116061023D01*
X151107041Y-116077501D01*
X151110496Y-116080956D01*
X151111420Y-116081408D01*
X151181091Y-116151079D01*
X151181542Y-116152002D01*
X151184999Y-116155459D01*
X151201478Y-116192782D01*
X151224598Y-116240073D01*
X151225700Y-116247639D01*
X151229531Y-116256315D01*
X151237500Y-116325000D01*
X151237500Y-119175000D01*
X151229531Y-119243685D01*
X151225699Y-119252361D01*
X151224598Y-119259925D01*
X151201485Y-119307202D01*
X151184999Y-119344541D01*
X151181541Y-119347998D01*
X151181091Y-119348920D01*
X151111420Y-119418591D01*
X151110498Y-119419041D01*
X151107041Y-119422499D01*
X151069707Y-119438983D01*
X151022426Y-119462098D01*
X151014861Y-119463200D01*
X151006185Y-119467031D01*
X150937500Y-119475000D01*
X150212500Y-119475000D01*
X150143815Y-119467031D01*
X150135138Y-119463200D01*
X150127574Y-119462098D01*
X150080287Y-119438981D01*
X150042959Y-119422499D01*
X150039502Y-119419042D01*
X150038579Y-119418591D01*
X149968908Y-119348920D01*
X149968456Y-119347996D01*
X149965001Y-119344541D01*
X149948525Y-119307228D01*
X149925401Y-119259926D01*
X149924298Y-119252357D01*
X149920469Y-119243685D01*
X149912500Y-119175000D01*
X149912500Y-116325000D01*
X149920469Y-116256315D01*
X149924298Y-116247642D01*
X149925401Y-116240074D01*
X149948528Y-116192766D01*
X149965001Y-116155459D01*
X149968455Y-116152004D01*
X149968908Y-116151079D01*
X150038579Y-116081408D01*
X150039504Y-116080955D01*
X150042959Y-116077501D01*
X150080261Y-116061030D01*
X150127573Y-116037901D01*
X150135142Y-116036798D01*
X150143815Y-116032969D01*
X150212500Y-116025000D01*
X150937500Y-116025000D01*
X151006185Y-116032969D01*
G37*
G36*
X156931185Y-116032969D02*
G01*
X156939858Y-116036798D01*
X156947425Y-116037901D01*
X156994723Y-116061023D01*
X157032041Y-116077501D01*
X157035496Y-116080956D01*
X157036420Y-116081408D01*
X157106091Y-116151079D01*
X157106542Y-116152002D01*
X157109999Y-116155459D01*
X157126478Y-116192782D01*
X157149598Y-116240073D01*
X157150700Y-116247639D01*
X157154531Y-116256315D01*
X157162500Y-116325000D01*
X157162500Y-119175000D01*
X157154531Y-119243685D01*
X157150699Y-119252361D01*
X157149598Y-119259925D01*
X157126485Y-119307202D01*
X157109999Y-119344541D01*
X157106541Y-119347998D01*
X157106091Y-119348920D01*
X157036420Y-119418591D01*
X157035498Y-119419041D01*
X157032041Y-119422499D01*
X156994707Y-119438983D01*
X156947426Y-119462098D01*
X156939861Y-119463200D01*
X156931185Y-119467031D01*
X156862500Y-119475000D01*
X156137500Y-119475000D01*
X156068815Y-119467031D01*
X156060138Y-119463200D01*
X156052574Y-119462098D01*
X156005287Y-119438981D01*
X155967959Y-119422499D01*
X155964502Y-119419042D01*
X155963579Y-119418591D01*
X155893908Y-119348920D01*
X155893456Y-119347996D01*
X155890001Y-119344541D01*
X155873525Y-119307228D01*
X155850401Y-119259926D01*
X155849298Y-119252357D01*
X155845469Y-119243685D01*
X155837500Y-119175000D01*
X155837500Y-116325000D01*
X155845469Y-116256315D01*
X155849298Y-116247642D01*
X155850401Y-116240074D01*
X155873528Y-116192766D01*
X155890001Y-116155459D01*
X155893455Y-116152004D01*
X155893908Y-116151079D01*
X155963579Y-116081408D01*
X155964504Y-116080955D01*
X155967959Y-116077501D01*
X156005261Y-116061030D01*
X156052573Y-116037901D01*
X156060142Y-116036798D01*
X156068815Y-116032969D01*
X156137500Y-116025000D01*
X156862500Y-116025000D01*
X156931185Y-116032969D01*
G37*
G36*
X143676537Y-118570224D02*
G01*
X143741421Y-118613579D01*
X143784776Y-118678463D01*
X143800000Y-118755000D01*
X143800000Y-119055000D01*
X143784776Y-119131537D01*
X143741421Y-119196421D01*
X143676537Y-119239776D01*
X143600000Y-119255000D01*
X141950000Y-119255000D01*
X141873463Y-119239776D01*
X141808579Y-119196421D01*
X141765224Y-119131537D01*
X141750000Y-119055000D01*
X141750000Y-118755000D01*
X141765224Y-118678463D01*
X141808579Y-118613579D01*
X141873463Y-118570224D01*
X141950000Y-118555000D01*
X143600000Y-118555000D01*
X143676537Y-118570224D01*
G37*
G36*
X148626537Y-118570224D02*
G01*
X148691421Y-118613579D01*
X148734776Y-118678463D01*
X148750000Y-118755000D01*
X148750000Y-119055000D01*
X148734776Y-119131537D01*
X148691421Y-119196421D01*
X148626537Y-119239776D01*
X148550000Y-119255000D01*
X146900000Y-119255000D01*
X146823463Y-119239776D01*
X146758579Y-119196421D01*
X146715224Y-119131537D01*
X146700000Y-119055000D01*
X146700000Y-118755000D01*
X146715224Y-118678463D01*
X146758579Y-118613579D01*
X146823463Y-118570224D01*
X146900000Y-118555000D01*
X148550000Y-118555000D01*
X148626537Y-118570224D01*
G37*
G36*
X161099134Y-116928806D02*
G01*
X161115355Y-116939645D01*
X161126194Y-116955866D01*
X161130000Y-116975000D01*
X161130000Y-118775000D01*
X161126194Y-118794134D01*
X161115355Y-118810355D01*
X161099134Y-118821194D01*
X161080000Y-118825000D01*
X159370000Y-118825000D01*
X159350866Y-118821194D01*
X159334645Y-118810355D01*
X159323806Y-118794134D01*
X159320000Y-118775000D01*
X159320000Y-116975000D01*
X159323806Y-116955866D01*
X159334645Y-116939645D01*
X159350866Y-116928806D01*
X159370000Y-116925000D01*
X161080000Y-116925000D01*
X161099134Y-116928806D01*
G37*
G36*
X162767708Y-116963969D02*
G01*
X162931614Y-117031861D01*
X163079126Y-117130426D01*
X163204574Y-117255874D01*
X163303139Y-117403386D01*
X163371031Y-117567292D01*
X163405642Y-117741294D01*
X163410000Y-117830000D01*
X163410000Y-117920000D01*
X163405642Y-118008706D01*
X163371031Y-118182708D01*
X163303139Y-118346614D01*
X163204574Y-118494126D01*
X163079126Y-118619574D01*
X162931614Y-118718139D01*
X162767708Y-118786031D01*
X162593706Y-118820642D01*
X162416294Y-118820642D01*
X162242292Y-118786031D01*
X162078386Y-118718139D01*
X161930874Y-118619574D01*
X161805426Y-118494126D01*
X161706861Y-118346614D01*
X161638969Y-118182708D01*
X161604358Y-118008706D01*
X161600000Y-117920000D01*
X161600000Y-117830000D01*
X161604358Y-117741294D01*
X161638969Y-117567292D01*
X161706861Y-117403386D01*
X161805426Y-117255874D01*
X161930874Y-117130426D01*
X162078386Y-117031861D01*
X162242292Y-116963969D01*
X162416294Y-116929358D01*
X162593706Y-116929358D01*
X162767708Y-116963969D01*
G37*
G36*
X165047708Y-116963969D02*
G01*
X165211614Y-117031861D01*
X165359126Y-117130426D01*
X165484574Y-117255874D01*
X165583139Y-117403386D01*
X165651031Y-117567292D01*
X165685642Y-117741294D01*
X165690000Y-117830000D01*
X165690000Y-117920000D01*
X165685642Y-118008706D01*
X165651031Y-118182708D01*
X165583139Y-118346614D01*
X165484574Y-118494126D01*
X165359126Y-118619574D01*
X165211614Y-118718139D01*
X165047708Y-118786031D01*
X164873706Y-118820642D01*
X164696294Y-118820642D01*
X164522292Y-118786031D01*
X164358386Y-118718139D01*
X164210874Y-118619574D01*
X164085426Y-118494126D01*
X163986861Y-118346614D01*
X163918969Y-118182708D01*
X163884358Y-118008706D01*
X163880000Y-117920000D01*
X163880000Y-117830000D01*
X163884358Y-117741294D01*
X163918969Y-117567292D01*
X163986861Y-117403386D01*
X164085426Y-117255874D01*
X164210874Y-117130426D01*
X164358386Y-117031861D01*
X164522292Y-116963969D01*
X164696294Y-116929358D01*
X164873706Y-116929358D01*
X165047708Y-116963969D01*
G37*
G36*
X134719134Y-116203806D02*
G01*
X134735355Y-116214645D01*
X134746194Y-116230866D01*
X134750000Y-116250000D01*
X134750000Y-118750000D01*
X134746194Y-118769134D01*
X134735355Y-118785355D01*
X134719134Y-118796194D01*
X134700000Y-118800000D01*
X133400000Y-118800000D01*
X133380866Y-118796194D01*
X133364645Y-118785355D01*
X133353806Y-118769134D01*
X133350000Y-118750000D01*
X133350000Y-116250000D01*
X133353806Y-116230866D01*
X133364645Y-116214645D01*
X133380866Y-116203806D01*
X133400000Y-116200000D01*
X134700000Y-116200000D01*
X134719134Y-116203806D01*
G37*
G36*
X140419134Y-116203806D02*
G01*
X140435355Y-116214645D01*
X140446194Y-116230866D01*
X140450000Y-116250000D01*
X140450000Y-118750000D01*
X140446194Y-118769134D01*
X140435355Y-118785355D01*
X140419134Y-118796194D01*
X140400000Y-118800000D01*
X139100000Y-118800000D01*
X139080866Y-118796194D01*
X139064645Y-118785355D01*
X139053806Y-118769134D01*
X139050000Y-118750000D01*
X139050000Y-116250000D01*
X139053806Y-116230866D01*
X139064645Y-116214645D01*
X139080866Y-116203806D01*
X139100000Y-116200000D01*
X140400000Y-116200000D01*
X140419134Y-116203806D01*
G37*
G36*
X143676537Y-117300224D02*
G01*
X143741421Y-117343579D01*
X143784776Y-117408463D01*
X143800000Y-117485000D01*
X143800000Y-117785000D01*
X143784776Y-117861537D01*
X143741421Y-117926421D01*
X143676537Y-117969776D01*
X143600000Y-117985000D01*
X141950000Y-117985000D01*
X141873463Y-117969776D01*
X141808579Y-117926421D01*
X141765224Y-117861537D01*
X141750000Y-117785000D01*
X141750000Y-117485000D01*
X141765224Y-117408463D01*
X141808579Y-117343579D01*
X141873463Y-117300224D01*
X141950000Y-117285000D01*
X143600000Y-117285000D01*
X143676537Y-117300224D01*
G37*
G36*
X148626537Y-117300224D02*
G01*
X148691421Y-117343579D01*
X148734776Y-117408463D01*
X148750000Y-117485000D01*
X148750000Y-117785000D01*
X148734776Y-117861537D01*
X148691421Y-117926421D01*
X148626537Y-117969776D01*
X148550000Y-117985000D01*
X146900000Y-117985000D01*
X146823463Y-117969776D01*
X146758579Y-117926421D01*
X146715224Y-117861537D01*
X146700000Y-117785000D01*
X146700000Y-117485000D01*
X146715224Y-117408463D01*
X146758579Y-117343579D01*
X146823463Y-117300224D01*
X146900000Y-117285000D01*
X148550000Y-117285000D01*
X148626537Y-117300224D01*
G37*
G36*
X197319134Y-114453806D02*
G01*
X197335355Y-114464645D01*
X197346194Y-114480866D01*
X197350000Y-114500000D01*
X197350000Y-117000000D01*
X197346194Y-117019134D01*
X197335355Y-117035355D01*
X197319134Y-117046194D01*
X197300000Y-117050000D01*
X196000000Y-117050000D01*
X195980866Y-117046194D01*
X195964645Y-117035355D01*
X195953806Y-117019134D01*
X195950000Y-117000000D01*
X195950000Y-114500000D01*
X195953806Y-114480866D01*
X195964645Y-114464645D01*
X195980866Y-114453806D01*
X196000000Y-114450000D01*
X197300000Y-114450000D01*
X197319134Y-114453806D01*
G37*
G36*
X203019134Y-114453806D02*
G01*
X203035355Y-114464645D01*
X203046194Y-114480866D01*
X203050000Y-114500000D01*
X203050000Y-117000000D01*
X203046194Y-117019134D01*
X203035355Y-117035355D01*
X203019134Y-117046194D01*
X203000000Y-117050000D01*
X201700000Y-117050000D01*
X201680866Y-117046194D01*
X201664645Y-117035355D01*
X201653806Y-117019134D01*
X201650000Y-117000000D01*
X201650000Y-114500000D01*
X201653806Y-114480866D01*
X201664645Y-114464645D01*
X201680866Y-114453806D01*
X201700000Y-114450000D01*
X203000000Y-114450000D01*
X203019134Y-114453806D01*
G37*
G36*
X143676537Y-116030224D02*
G01*
X143741421Y-116073579D01*
X143784776Y-116138463D01*
X143800000Y-116215000D01*
X143800000Y-116515000D01*
X143784776Y-116591537D01*
X143741421Y-116656421D01*
X143676537Y-116699776D01*
X143600000Y-116715000D01*
X141950000Y-116715000D01*
X141873463Y-116699776D01*
X141808579Y-116656421D01*
X141765224Y-116591537D01*
X141750000Y-116515000D01*
X141750000Y-116215000D01*
X141765224Y-116138463D01*
X141808579Y-116073579D01*
X141873463Y-116030224D01*
X141950000Y-116015000D01*
X143600000Y-116015000D01*
X143676537Y-116030224D01*
G37*
G36*
X148626537Y-116030224D02*
G01*
X148691421Y-116073579D01*
X148734776Y-116138463D01*
X148750000Y-116215000D01*
X148750000Y-116515000D01*
X148734776Y-116591537D01*
X148691421Y-116656421D01*
X148626537Y-116699776D01*
X148550000Y-116715000D01*
X146900000Y-116715000D01*
X146823463Y-116699776D01*
X146758579Y-116656421D01*
X146715224Y-116591537D01*
X146700000Y-116515000D01*
X146700000Y-116215000D01*
X146715224Y-116138463D01*
X146758579Y-116073579D01*
X146823463Y-116030224D01*
X146900000Y-116015000D01*
X148550000Y-116015000D01*
X148626537Y-116030224D01*
G37*
G36*
X143676537Y-114760224D02*
G01*
X143741421Y-114803579D01*
X143784776Y-114868463D01*
X143800000Y-114945000D01*
X143800000Y-115245000D01*
X143784776Y-115321537D01*
X143741421Y-115386421D01*
X143676537Y-115429776D01*
X143600000Y-115445000D01*
X141950000Y-115445000D01*
X141873463Y-115429776D01*
X141808579Y-115386421D01*
X141765224Y-115321537D01*
X141750000Y-115245000D01*
X141750000Y-114945000D01*
X141765224Y-114868463D01*
X141808579Y-114803579D01*
X141873463Y-114760224D01*
X141950000Y-114745000D01*
X143600000Y-114745000D01*
X143676537Y-114760224D01*
G37*
G36*
X148626537Y-114760224D02*
G01*
X148691421Y-114803579D01*
X148734776Y-114868463D01*
X148750000Y-114945000D01*
X148750000Y-115245000D01*
X148734776Y-115321537D01*
X148691421Y-115386421D01*
X148626537Y-115429776D01*
X148550000Y-115445000D01*
X146900000Y-115445000D01*
X146823463Y-115429776D01*
X146758579Y-115386421D01*
X146715224Y-115321537D01*
X146700000Y-115245000D01*
X146700000Y-114945000D01*
X146715224Y-114868463D01*
X146758579Y-114803579D01*
X146823463Y-114760224D01*
X146900000Y-114745000D01*
X148550000Y-114745000D01*
X148626537Y-114760224D01*
G37*
G36*
X171766046Y-113715023D02*
G01*
X171815233Y-113720730D01*
X171832039Y-113728150D01*
X171854035Y-113732526D01*
X171877581Y-113748259D01*
X171897425Y-113757021D01*
X171910978Y-113770574D01*
X171932059Y-113784660D01*
X171946144Y-113805740D01*
X171959697Y-113819293D01*
X171968457Y-113839134D01*
X171984193Y-113862684D01*
X171988568Y-113884681D01*
X171995988Y-113901485D01*
X172001692Y-113950661D01*
X172002500Y-113954719D01*
X172002500Y-114843719D01*
X172001692Y-114847777D01*
X171995988Y-114896952D01*
X171988568Y-114913754D01*
X171984193Y-114935754D01*
X171968456Y-114959305D01*
X171959697Y-114979144D01*
X171946146Y-114992694D01*
X171932059Y-115013778D01*
X171910975Y-115027865D01*
X171897425Y-115041416D01*
X171877586Y-115050175D01*
X171854035Y-115065912D01*
X171832035Y-115070287D01*
X171815233Y-115077707D01*
X171766058Y-115083411D01*
X171762000Y-115084219D01*
X170238000Y-115084219D01*
X170233942Y-115083411D01*
X170184766Y-115077707D01*
X170167962Y-115070287D01*
X170145965Y-115065912D01*
X170122415Y-115050176D01*
X170102574Y-115041416D01*
X170089021Y-115027863D01*
X170067941Y-115013778D01*
X170053855Y-114992697D01*
X170040302Y-114979144D01*
X170031540Y-114959300D01*
X170015807Y-114935754D01*
X170011431Y-114913758D01*
X170004011Y-114896952D01*
X169998304Y-114847765D01*
X169997500Y-114843719D01*
X169997500Y-113954719D01*
X169998304Y-113950673D01*
X170004011Y-113901485D01*
X170011432Y-113884677D01*
X170015807Y-113862684D01*
X170031539Y-113839139D01*
X170040302Y-113819293D01*
X170053857Y-113805737D01*
X170067941Y-113784660D01*
X170089018Y-113770576D01*
X170102574Y-113757021D01*
X170122420Y-113748258D01*
X170145965Y-113732526D01*
X170167958Y-113728151D01*
X170184766Y-113720730D01*
X170233954Y-113715023D01*
X170238000Y-113714219D01*
X171762000Y-113714219D01*
X171766046Y-113715023D01*
G37*
G36*
X176766046Y-113715023D02*
G01*
X176815233Y-113720730D01*
X176832039Y-113728150D01*
X176854035Y-113732526D01*
X176877581Y-113748259D01*
X176897425Y-113757021D01*
X176910978Y-113770574D01*
X176932059Y-113784660D01*
X176946144Y-113805740D01*
X176959697Y-113819293D01*
X176968457Y-113839134D01*
X176984193Y-113862684D01*
X176988568Y-113884681D01*
X176995988Y-113901485D01*
X177001692Y-113950661D01*
X177002500Y-113954719D01*
X177002500Y-114843719D01*
X177001692Y-114847777D01*
X176995988Y-114896952D01*
X176988568Y-114913754D01*
X176984193Y-114935754D01*
X176968456Y-114959305D01*
X176959697Y-114979144D01*
X176946146Y-114992694D01*
X176932059Y-115013778D01*
X176910975Y-115027865D01*
X176897425Y-115041416D01*
X176877586Y-115050175D01*
X176854035Y-115065912D01*
X176832035Y-115070287D01*
X176815233Y-115077707D01*
X176766058Y-115083411D01*
X176762000Y-115084219D01*
X175238000Y-115084219D01*
X175233942Y-115083411D01*
X175184766Y-115077707D01*
X175167962Y-115070287D01*
X175145965Y-115065912D01*
X175122415Y-115050176D01*
X175102574Y-115041416D01*
X175089021Y-115027863D01*
X175067941Y-115013778D01*
X175053855Y-114992697D01*
X175040302Y-114979144D01*
X175031540Y-114959300D01*
X175015807Y-114935754D01*
X175011431Y-114913758D01*
X175004011Y-114896952D01*
X174998304Y-114847765D01*
X174997500Y-114843719D01*
X174997500Y-113954719D01*
X174998304Y-113950673D01*
X175004011Y-113901485D01*
X175011432Y-113884677D01*
X175015807Y-113862684D01*
X175031539Y-113839139D01*
X175040302Y-113819293D01*
X175053857Y-113805737D01*
X175067941Y-113784660D01*
X175089018Y-113770576D01*
X175102574Y-113757021D01*
X175122420Y-113748258D01*
X175145965Y-113732526D01*
X175167958Y-113728151D01*
X175184766Y-113720730D01*
X175233954Y-113715023D01*
X175238000Y-113714219D01*
X176762000Y-113714219D01*
X176766046Y-113715023D01*
G37*
G36*
X188516046Y-113465023D02*
G01*
X188565233Y-113470730D01*
X188582039Y-113478150D01*
X188604035Y-113482526D01*
X188627581Y-113498259D01*
X188647425Y-113507021D01*
X188660978Y-113520574D01*
X188682059Y-113534660D01*
X188696144Y-113555740D01*
X188709697Y-113569293D01*
X188718457Y-113589134D01*
X188734193Y-113612684D01*
X188738568Y-113634681D01*
X188745988Y-113651485D01*
X188751692Y-113700661D01*
X188752500Y-113704719D01*
X188752500Y-114593719D01*
X188751692Y-114597777D01*
X188745988Y-114646952D01*
X188738568Y-114663754D01*
X188734193Y-114685754D01*
X188718456Y-114709305D01*
X188709697Y-114729144D01*
X188696146Y-114742694D01*
X188682059Y-114763778D01*
X188660975Y-114777865D01*
X188647425Y-114791416D01*
X188627586Y-114800175D01*
X188604035Y-114815912D01*
X188582035Y-114820287D01*
X188565233Y-114827707D01*
X188516058Y-114833411D01*
X188512000Y-114834219D01*
X186988000Y-114834219D01*
X186983942Y-114833411D01*
X186934766Y-114827707D01*
X186917962Y-114820287D01*
X186895965Y-114815912D01*
X186872415Y-114800176D01*
X186852574Y-114791416D01*
X186839021Y-114777863D01*
X186817941Y-114763778D01*
X186803855Y-114742697D01*
X186790302Y-114729144D01*
X186781540Y-114709300D01*
X186765807Y-114685754D01*
X186761431Y-114663758D01*
X186754011Y-114646952D01*
X186748304Y-114597765D01*
X186747500Y-114593719D01*
X186747500Y-113704719D01*
X186748304Y-113700673D01*
X186754011Y-113651485D01*
X186761432Y-113634677D01*
X186765807Y-113612684D01*
X186781539Y-113589139D01*
X186790302Y-113569293D01*
X186803857Y-113555737D01*
X186817941Y-113534660D01*
X186839018Y-113520576D01*
X186852574Y-113507021D01*
X186872420Y-113498258D01*
X186895965Y-113482526D01*
X186917958Y-113478151D01*
X186934766Y-113470730D01*
X186983954Y-113465023D01*
X186988000Y-113464219D01*
X188512000Y-113464219D01*
X188516046Y-113465023D01*
G37*
G36*
X193516046Y-113465023D02*
G01*
X193565233Y-113470730D01*
X193582039Y-113478150D01*
X193604035Y-113482526D01*
X193627581Y-113498259D01*
X193647425Y-113507021D01*
X193660978Y-113520574D01*
X193682059Y-113534660D01*
X193696144Y-113555740D01*
X193709697Y-113569293D01*
X193718457Y-113589134D01*
X193734193Y-113612684D01*
X193738568Y-113634681D01*
X193745988Y-113651485D01*
X193751692Y-113700661D01*
X193752500Y-113704719D01*
X193752500Y-114593719D01*
X193751692Y-114597777D01*
X193745988Y-114646952D01*
X193738568Y-114663754D01*
X193734193Y-114685754D01*
X193718456Y-114709305D01*
X193709697Y-114729144D01*
X193696146Y-114742694D01*
X193682059Y-114763778D01*
X193660975Y-114777865D01*
X193647425Y-114791416D01*
X193627586Y-114800175D01*
X193604035Y-114815912D01*
X193582035Y-114820287D01*
X193565233Y-114827707D01*
X193516058Y-114833411D01*
X193512000Y-114834219D01*
X191988000Y-114834219D01*
X191983942Y-114833411D01*
X191934766Y-114827707D01*
X191917962Y-114820287D01*
X191895965Y-114815912D01*
X191872415Y-114800176D01*
X191852574Y-114791416D01*
X191839021Y-114777863D01*
X191817941Y-114763778D01*
X191803855Y-114742697D01*
X191790302Y-114729144D01*
X191781540Y-114709300D01*
X191765807Y-114685754D01*
X191761431Y-114663758D01*
X191754011Y-114646952D01*
X191748304Y-114597765D01*
X191747500Y-114593719D01*
X191747500Y-113704719D01*
X191748304Y-113700673D01*
X191754011Y-113651485D01*
X191761432Y-113634677D01*
X191765807Y-113612684D01*
X191781539Y-113589139D01*
X191790302Y-113569293D01*
X191803857Y-113555737D01*
X191817941Y-113534660D01*
X191839018Y-113520576D01*
X191852574Y-113507021D01*
X191872420Y-113498258D01*
X191895965Y-113482526D01*
X191917958Y-113478151D01*
X191934766Y-113470730D01*
X191983954Y-113465023D01*
X191988000Y-113464219D01*
X193512000Y-113464219D01*
X193516046Y-113465023D01*
G37*
G36*
X110056934Y-112183806D02*
G01*
X110073155Y-112194645D01*
X110083994Y-112210866D01*
X110087800Y-112230000D01*
X110087800Y-114770000D01*
X110083994Y-114789134D01*
X110073155Y-114805355D01*
X110056934Y-114816194D01*
X110037800Y-114820000D01*
X107497800Y-114820000D01*
X107478666Y-114816194D01*
X107462445Y-114805355D01*
X107451606Y-114789134D01*
X107447800Y-114770000D01*
X107447800Y-112230000D01*
X107451606Y-112210866D01*
X107462445Y-112194645D01*
X107478666Y-112183806D01*
X107497800Y-112180000D01*
X110037800Y-112180000D01*
X110056934Y-112183806D01*
G37*
G36*
X119058148Y-112216472D02*
G01*
X119255142Y-112280479D01*
X119439698Y-112374515D01*
X119607271Y-112496264D01*
X119753736Y-112642729D01*
X119875485Y-112810302D01*
X119969521Y-112994858D01*
X120033528Y-113191852D01*
X120065931Y-113396434D01*
X120065931Y-113603566D01*
X120033528Y-113808148D01*
X119969521Y-114005142D01*
X119875485Y-114189698D01*
X119753736Y-114357271D01*
X119607271Y-114503736D01*
X119439698Y-114625485D01*
X119255142Y-114719521D01*
X119058148Y-114783528D01*
X118853566Y-114815931D01*
X118646434Y-114815931D01*
X118441852Y-114783528D01*
X118244858Y-114719521D01*
X118060302Y-114625485D01*
X117892729Y-114503736D01*
X117746264Y-114357271D01*
X117624515Y-114189698D01*
X117530479Y-114005142D01*
X117466472Y-113808148D01*
X117434069Y-113603566D01*
X117434069Y-113396434D01*
X117466472Y-113191852D01*
X117530479Y-112994858D01*
X117624515Y-112810302D01*
X117746264Y-112642729D01*
X117892729Y-112496264D01*
X118060302Y-112374515D01*
X118244858Y-112280479D01*
X118441852Y-112216472D01*
X118646434Y-112184069D01*
X118853566Y-112184069D01*
X119058148Y-112216472D01*
G37*
G36*
X159468685Y-109532969D02*
G01*
X159477358Y-109536798D01*
X159484925Y-109537901D01*
X159532223Y-109561023D01*
X159569541Y-109577501D01*
X159572996Y-109580956D01*
X159573920Y-109581408D01*
X159643591Y-109651079D01*
X159644042Y-109652002D01*
X159647499Y-109655459D01*
X159663978Y-109692782D01*
X159687098Y-109740073D01*
X159688200Y-109747639D01*
X159692031Y-109756315D01*
X159700000Y-109825000D01*
X159700000Y-112675000D01*
X159692031Y-112743685D01*
X159688199Y-112752361D01*
X159687098Y-112759925D01*
X159663985Y-112807202D01*
X159647499Y-112844541D01*
X159644041Y-112847998D01*
X159643591Y-112848920D01*
X159573920Y-112918591D01*
X159572998Y-112919041D01*
X159569541Y-112922499D01*
X159532207Y-112938983D01*
X159484926Y-112962098D01*
X159477361Y-112963200D01*
X159468685Y-112967031D01*
X159400000Y-112975000D01*
X158675000Y-112975000D01*
X158606315Y-112967031D01*
X158597638Y-112963200D01*
X158590074Y-112962098D01*
X158542787Y-112938981D01*
X158505459Y-112922499D01*
X158502002Y-112919042D01*
X158501079Y-112918591D01*
X158431408Y-112848920D01*
X158430956Y-112847996D01*
X158427501Y-112844541D01*
X158411025Y-112807228D01*
X158387901Y-112759926D01*
X158386798Y-112752357D01*
X158382969Y-112743685D01*
X158375000Y-112675000D01*
X158375000Y-109825000D01*
X158382969Y-109756315D01*
X158386798Y-109747642D01*
X158387901Y-109740074D01*
X158411028Y-109692766D01*
X158427501Y-109655459D01*
X158430955Y-109652004D01*
X158431408Y-109651079D01*
X158501079Y-109581408D01*
X158502004Y-109580955D01*
X158505459Y-109577501D01*
X158542761Y-109561030D01*
X158590073Y-109537901D01*
X158597642Y-109536798D01*
X158606315Y-109532969D01*
X158675000Y-109525000D01*
X159400000Y-109525000D01*
X159468685Y-109532969D01*
G37*
G36*
X165393685Y-109532969D02*
G01*
X165402358Y-109536798D01*
X165409925Y-109537901D01*
X165457223Y-109561023D01*
X165494541Y-109577501D01*
X165497996Y-109580956D01*
X165498920Y-109581408D01*
X165568591Y-109651079D01*
X165569042Y-109652002D01*
X165572499Y-109655459D01*
X165588978Y-109692782D01*
X165612098Y-109740073D01*
X165613200Y-109747639D01*
X165617031Y-109756315D01*
X165625000Y-109825000D01*
X165625000Y-112675000D01*
X165617031Y-112743685D01*
X165613199Y-112752361D01*
X165612098Y-112759925D01*
X165588985Y-112807202D01*
X165572499Y-112844541D01*
X165569041Y-112847998D01*
X165568591Y-112848920D01*
X165498920Y-112918591D01*
X165497998Y-112919041D01*
X165494541Y-112922499D01*
X165457207Y-112938983D01*
X165409926Y-112962098D01*
X165402361Y-112963200D01*
X165393685Y-112967031D01*
X165325000Y-112975000D01*
X164600000Y-112975000D01*
X164531315Y-112967031D01*
X164522638Y-112963200D01*
X164515074Y-112962098D01*
X164467787Y-112938981D01*
X164430459Y-112922499D01*
X164427002Y-112919042D01*
X164426079Y-112918591D01*
X164356408Y-112848920D01*
X164355956Y-112847996D01*
X164352501Y-112844541D01*
X164336025Y-112807228D01*
X164312901Y-112759926D01*
X164311798Y-112752357D01*
X164307969Y-112743685D01*
X164300000Y-112675000D01*
X164300000Y-109825000D01*
X164307969Y-109756315D01*
X164311798Y-109747642D01*
X164312901Y-109740074D01*
X164336028Y-109692766D01*
X164352501Y-109655459D01*
X164355955Y-109652004D01*
X164356408Y-109651079D01*
X164426079Y-109581408D01*
X164427004Y-109580955D01*
X164430459Y-109577501D01*
X164467761Y-109561030D01*
X164515073Y-109537901D01*
X164522642Y-109536798D01*
X164531315Y-109532969D01*
X164600000Y-109525000D01*
X165325000Y-109525000D01*
X165393685Y-109532969D01*
G37*
G36*
X197039134Y-109353806D02*
G01*
X197055355Y-109364645D01*
X197066194Y-109380866D01*
X197070000Y-109400000D01*
X197070000Y-111600000D01*
X197066194Y-111619134D01*
X197055355Y-111635355D01*
X197039134Y-111646194D01*
X197020000Y-111650000D01*
X194820000Y-111650000D01*
X194800866Y-111646194D01*
X194784645Y-111635355D01*
X194773806Y-111619134D01*
X194770000Y-111600000D01*
X194770000Y-109400000D01*
X194773806Y-109380866D01*
X194784645Y-109364645D01*
X194800866Y-109353806D01*
X194820000Y-109350000D01*
X197020000Y-109350000D01*
X197039134Y-109353806D01*
G37*
G36*
X206348462Y-109381775D02*
G01*
X206520086Y-109437539D01*
X206680873Y-109519464D01*
X206826865Y-109625533D01*
X206954467Y-109753135D01*
X207060536Y-109899127D01*
X207142461Y-110059914D01*
X207198225Y-110231538D01*
X207226455Y-110409772D01*
X207226455Y-110590228D01*
X207198225Y-110768462D01*
X207142461Y-110940086D01*
X207060536Y-111100873D01*
X206954467Y-111246865D01*
X206826865Y-111374467D01*
X206680873Y-111480536D01*
X206520086Y-111562461D01*
X206348462Y-111618225D01*
X206170228Y-111646455D01*
X205989772Y-111646455D01*
X205811538Y-111618225D01*
X205639914Y-111562461D01*
X205479127Y-111480536D01*
X205333135Y-111374467D01*
X205205533Y-111246865D01*
X205099464Y-111100873D01*
X205017539Y-110940086D01*
X204961775Y-110768462D01*
X204933545Y-110590228D01*
X204933545Y-110409772D01*
X204961775Y-110231538D01*
X205017539Y-110059914D01*
X205099464Y-109899127D01*
X205205533Y-109753135D01*
X205333135Y-109625533D01*
X205479127Y-109519464D01*
X205639914Y-109437539D01*
X205811538Y-109381775D01*
X205989772Y-109353545D01*
X206170228Y-109353545D01*
X206348462Y-109381775D01*
G37*
G36*
X149880672Y-109450898D02*
G01*
X149964379Y-109459897D01*
X149984227Y-109467299D01*
X150006332Y-109470801D01*
X150041070Y-109488501D01*
X150078437Y-109502438D01*
X150099779Y-109518414D01*
X150124809Y-109531168D01*
X150148610Y-109554969D01*
X150175157Y-109574842D01*
X150195029Y-109601388D01*
X150218832Y-109625191D01*
X150231585Y-109650221D01*
X150247561Y-109671562D01*
X150261496Y-109708924D01*
X150279199Y-109743668D01*
X150282700Y-109765775D01*
X150290102Y-109785620D01*
X150299098Y-109869309D01*
X150300000Y-109875000D01*
X150300000Y-110625000D01*
X150299098Y-110630692D01*
X150290102Y-110714379D01*
X150282700Y-110734222D01*
X150279199Y-110756332D01*
X150261495Y-110791077D01*
X150247561Y-110828437D01*
X150231587Y-110849775D01*
X150218832Y-110874809D01*
X150195026Y-110898614D01*
X150175157Y-110925157D01*
X150148614Y-110945026D01*
X150124809Y-110968832D01*
X150099775Y-110981587D01*
X150078437Y-110997561D01*
X150041077Y-111011495D01*
X150006332Y-111029199D01*
X149984222Y-111032700D01*
X149964379Y-111040102D01*
X149880692Y-111049098D01*
X149875000Y-111050000D01*
X148625000Y-111050000D01*
X148619309Y-111049098D01*
X148535620Y-111040102D01*
X148515775Y-111032700D01*
X148493668Y-111029199D01*
X148458924Y-111011496D01*
X148421562Y-110997561D01*
X148400221Y-110981585D01*
X148375191Y-110968832D01*
X148351388Y-110945029D01*
X148324842Y-110925157D01*
X148304969Y-110898610D01*
X148281168Y-110874809D01*
X148268414Y-110849779D01*
X148252438Y-110828437D01*
X148238501Y-110791070D01*
X148220801Y-110756332D01*
X148217299Y-110734227D01*
X148209897Y-110714379D01*
X148200898Y-110630672D01*
X148200000Y-110625000D01*
X148200000Y-109875000D01*
X148200898Y-109869329D01*
X148209897Y-109785620D01*
X148217300Y-109765770D01*
X148220801Y-109743668D01*
X148238499Y-109708932D01*
X148252438Y-109671562D01*
X148268416Y-109650217D01*
X148281168Y-109625191D01*
X148304966Y-109601392D01*
X148324842Y-109574842D01*
X148351392Y-109554966D01*
X148375191Y-109531168D01*
X148400217Y-109518416D01*
X148421562Y-109502438D01*
X148458932Y-109488499D01*
X148493668Y-109470801D01*
X148515770Y-109467300D01*
X148535620Y-109459897D01*
X148619329Y-109450898D01*
X148625000Y-109450000D01*
X149875000Y-109450000D01*
X149880672Y-109450898D01*
G37*
G36*
X130069134Y-107703806D02*
G01*
X130085355Y-107714645D01*
X130096194Y-107730866D01*
X130100000Y-107750000D01*
X130100000Y-110250000D01*
X130096194Y-110269134D01*
X130085355Y-110285355D01*
X130069134Y-110296194D01*
X130050000Y-110300000D01*
X128750000Y-110300000D01*
X128730866Y-110296194D01*
X128714645Y-110285355D01*
X128703806Y-110269134D01*
X128700000Y-110250000D01*
X128700000Y-107750000D01*
X128703806Y-107730866D01*
X128714645Y-107714645D01*
X128730866Y-107703806D01*
X128750000Y-107700000D01*
X130050000Y-107700000D01*
X130069134Y-107703806D01*
G37*
G36*
X135769134Y-107703806D02*
G01*
X135785355Y-107714645D01*
X135796194Y-107730866D01*
X135800000Y-107750000D01*
X135800000Y-110250000D01*
X135796194Y-110269134D01*
X135785355Y-110285355D01*
X135769134Y-110296194D01*
X135750000Y-110300000D01*
X134450000Y-110300000D01*
X134430866Y-110296194D01*
X134414645Y-110285355D01*
X134403806Y-110269134D01*
X134400000Y-110250000D01*
X134400000Y-107750000D01*
X134403806Y-107730866D01*
X134414645Y-107714645D01*
X134430866Y-107703806D01*
X134450000Y-107700000D01*
X135750000Y-107700000D01*
X135769134Y-107703806D01*
G37*
G36*
X156180220Y-106015638D02*
G01*
X156187589Y-106018544D01*
X156192237Y-106019156D01*
X156253683Y-106044608D01*
X156319561Y-106070587D01*
X156323364Y-106073471D01*
X156324783Y-106074059D01*
X156378966Y-106115635D01*
X156438909Y-106161091D01*
X156484383Y-106221058D01*
X156525940Y-106275216D01*
X156526527Y-106276633D01*
X156529413Y-106280439D01*
X156555403Y-106346346D01*
X156580843Y-106407762D01*
X156581454Y-106412407D01*
X156584362Y-106419780D01*
X156600000Y-106550000D01*
X156600000Y-109350000D01*
X156584362Y-109480220D01*
X156581454Y-109487593D01*
X156580843Y-109492237D01*
X156555411Y-109553632D01*
X156529413Y-109619561D01*
X156526526Y-109623367D01*
X156525940Y-109624783D01*
X156484448Y-109678855D01*
X156438909Y-109738909D01*
X156378855Y-109784448D01*
X156324783Y-109825940D01*
X156323367Y-109826526D01*
X156319561Y-109829413D01*
X156253632Y-109855411D01*
X156192237Y-109880843D01*
X156187593Y-109881454D01*
X156180220Y-109884362D01*
X156050000Y-109900000D01*
X155050000Y-109900000D01*
X154919780Y-109884362D01*
X154912407Y-109881454D01*
X154907762Y-109880843D01*
X154846346Y-109855403D01*
X154780439Y-109829413D01*
X154776633Y-109826527D01*
X154775216Y-109825940D01*
X154721058Y-109784383D01*
X154661091Y-109738909D01*
X154615635Y-109678966D01*
X154574059Y-109624783D01*
X154573471Y-109623364D01*
X154570587Y-109619561D01*
X154544608Y-109553683D01*
X154519156Y-109492237D01*
X154518544Y-109487589D01*
X154515638Y-109480220D01*
X154500000Y-109350000D01*
X154500000Y-106550000D01*
X154515638Y-106419780D01*
X154518543Y-106412410D01*
X154519156Y-106407762D01*
X154544616Y-106346296D01*
X154570587Y-106280439D01*
X154573470Y-106276636D01*
X154574059Y-106275216D01*
X154615700Y-106220947D01*
X154661091Y-106161091D01*
X154720947Y-106115700D01*
X154775216Y-106074059D01*
X154776636Y-106073470D01*
X154780439Y-106070587D01*
X154846296Y-106044616D01*
X154907762Y-106019156D01*
X154912410Y-106018543D01*
X154919780Y-106015638D01*
X155050000Y-106000000D01*
X156050000Y-106000000D01*
X156180220Y-106015638D01*
G37*
G36*
X171939134Y-107888806D02*
G01*
X171955355Y-107899645D01*
X171966194Y-107915866D01*
X171970000Y-107935000D01*
X171970000Y-109735000D01*
X171966194Y-109754134D01*
X171955355Y-109770355D01*
X171939134Y-109781194D01*
X171920000Y-109785000D01*
X170120000Y-109785000D01*
X170100866Y-109781194D01*
X170084645Y-109770355D01*
X170073806Y-109754134D01*
X170070000Y-109735000D01*
X170070000Y-107935000D01*
X170073806Y-107915866D01*
X170084645Y-107899645D01*
X170100866Y-107888806D01*
X170120000Y-107885000D01*
X171920000Y-107885000D01*
X171939134Y-107888806D01*
G37*
G36*
X168755770Y-107925907D02*
G01*
X168927827Y-107997175D01*
X169082674Y-108100640D01*
X169214360Y-108232326D01*
X169317825Y-108387173D01*
X169389093Y-108559230D01*
X169425425Y-108741884D01*
X169425425Y-108928116D01*
X169389093Y-109110770D01*
X169317825Y-109282827D01*
X169214360Y-109437674D01*
X169082674Y-109569360D01*
X168927827Y-109672825D01*
X168755770Y-109744093D01*
X168573116Y-109780425D01*
X168386884Y-109780425D01*
X168204230Y-109744093D01*
X168032173Y-109672825D01*
X167877326Y-109569360D01*
X167745640Y-109437674D01*
X167642175Y-109282827D01*
X167570907Y-109110770D01*
X167534575Y-108928116D01*
X167534575Y-108741884D01*
X167570907Y-108559230D01*
X167642175Y-108387173D01*
X167745640Y-108232326D01*
X167877326Y-108100640D01*
X168032173Y-107997175D01*
X168204230Y-107925907D01*
X168386884Y-107889575D01*
X168573116Y-107889575D01*
X168755770Y-107925907D01*
G37*
G36*
X142803686Y-108150241D02*
G01*
X142857577Y-108152889D01*
X142864210Y-108154208D01*
X142878316Y-108155133D01*
X142905562Y-108162433D01*
X142974099Y-108176066D01*
X143006448Y-108189465D01*
X143029610Y-108195672D01*
X143050377Y-108207662D01*
X143082722Y-108221060D01*
X143140816Y-108259877D01*
X143165257Y-108273988D01*
X143171946Y-108280677D01*
X143180481Y-108286380D01*
X143263619Y-108369518D01*
X143269321Y-108378052D01*
X143276012Y-108384743D01*
X143290124Y-108409186D01*
X143328939Y-108467277D01*
X143342335Y-108499618D01*
X143354328Y-108520390D01*
X143360535Y-108543555D01*
X143373933Y-108575900D01*
X143387565Y-108644433D01*
X143394867Y-108671684D01*
X143394867Y-108681141D01*
X143396870Y-108691211D01*
X143396870Y-108808788D01*
X143394867Y-108818857D01*
X143394867Y-108828316D01*
X143387564Y-108855569D01*
X143373933Y-108924099D01*
X143360535Y-108956441D01*
X143354328Y-108979610D01*
X143342334Y-109000383D01*
X143328939Y-109032722D01*
X143290128Y-109090805D01*
X143276012Y-109115257D01*
X143269319Y-109121949D01*
X143263619Y-109130481D01*
X143180481Y-109213619D01*
X143171949Y-109219319D01*
X143165257Y-109226012D01*
X143140805Y-109240128D01*
X143082722Y-109278939D01*
X143050383Y-109292334D01*
X143029610Y-109304328D01*
X143006441Y-109310535D01*
X142974099Y-109323933D01*
X142905576Y-109337562D01*
X142878316Y-109344867D01*
X142864203Y-109345791D01*
X142857577Y-109347110D01*
X142803691Y-109349758D01*
X142800000Y-109350000D01*
X142798768Y-109350000D01*
X141701232Y-109350000D01*
X141700000Y-109350000D01*
X141696308Y-109349758D01*
X141642422Y-109347110D01*
X141635795Y-109345791D01*
X141621684Y-109344867D01*
X141594426Y-109337563D01*
X141525900Y-109323933D01*
X141493555Y-109310535D01*
X141470390Y-109304328D01*
X141449618Y-109292335D01*
X141417277Y-109278939D01*
X141359186Y-109240124D01*
X141334743Y-109226012D01*
X141328052Y-109219321D01*
X141319518Y-109213619D01*
X141236380Y-109130481D01*
X141230677Y-109121946D01*
X141223988Y-109115257D01*
X141209877Y-109090816D01*
X141171060Y-109032722D01*
X141157662Y-109000377D01*
X141145672Y-108979610D01*
X141139465Y-108956448D01*
X141126066Y-108924099D01*
X141112433Y-108855563D01*
X141105133Y-108828316D01*
X141105133Y-108818858D01*
X141103130Y-108808788D01*
X141103130Y-108691211D01*
X141105133Y-108681140D01*
X141105133Y-108671684D01*
X141112433Y-108644439D01*
X141126066Y-108575900D01*
X141139466Y-108543548D01*
X141145672Y-108520390D01*
X141157660Y-108499624D01*
X141171060Y-108467277D01*
X141209881Y-108409175D01*
X141223988Y-108384743D01*
X141230675Y-108378055D01*
X141236380Y-108369518D01*
X141319518Y-108286380D01*
X141328055Y-108280675D01*
X141334743Y-108273988D01*
X141359175Y-108259881D01*
X141417277Y-108221060D01*
X141449624Y-108207660D01*
X141470390Y-108195672D01*
X141493548Y-108189466D01*
X141525900Y-108176066D01*
X141594440Y-108162432D01*
X141621684Y-108155133D01*
X141635787Y-108154208D01*
X141642422Y-108152889D01*
X141696313Y-108150241D01*
X141700000Y-108150000D01*
X142800000Y-108150000D01*
X142803686Y-108150241D01*
G37*
G36*
X149880672Y-107150898D02*
G01*
X149964379Y-107159897D01*
X149984227Y-107167299D01*
X150006332Y-107170801D01*
X150041070Y-107188501D01*
X150078437Y-107202438D01*
X150099779Y-107218414D01*
X150124809Y-107231168D01*
X150148610Y-107254969D01*
X150175157Y-107274842D01*
X150195029Y-107301388D01*
X150218832Y-107325191D01*
X150231585Y-107350221D01*
X150247561Y-107371562D01*
X150261496Y-107408924D01*
X150279199Y-107443668D01*
X150282700Y-107465775D01*
X150290102Y-107485620D01*
X150299098Y-107569309D01*
X150300000Y-107575000D01*
X150300000Y-108325000D01*
X150299098Y-108330692D01*
X150290102Y-108414379D01*
X150282700Y-108434222D01*
X150279199Y-108456332D01*
X150261495Y-108491077D01*
X150247561Y-108528437D01*
X150231587Y-108549775D01*
X150218832Y-108574809D01*
X150195026Y-108598614D01*
X150175157Y-108625157D01*
X150148614Y-108645026D01*
X150124809Y-108668832D01*
X150099775Y-108681587D01*
X150078437Y-108697561D01*
X150041077Y-108711495D01*
X150006332Y-108729199D01*
X149984222Y-108732700D01*
X149964379Y-108740102D01*
X149880692Y-108749098D01*
X149875000Y-108750000D01*
X148625000Y-108750000D01*
X148619309Y-108749098D01*
X148535620Y-108740102D01*
X148515775Y-108732700D01*
X148493668Y-108729199D01*
X148458924Y-108711496D01*
X148421562Y-108697561D01*
X148400221Y-108681585D01*
X148375191Y-108668832D01*
X148351388Y-108645029D01*
X148324842Y-108625157D01*
X148304969Y-108598610D01*
X148281168Y-108574809D01*
X148268414Y-108549779D01*
X148252438Y-108528437D01*
X148238501Y-108491070D01*
X148220801Y-108456332D01*
X148217299Y-108434227D01*
X148209897Y-108414379D01*
X148200898Y-108330672D01*
X148200000Y-108325000D01*
X148200000Y-107575000D01*
X148200898Y-107569329D01*
X148209897Y-107485620D01*
X148217300Y-107465770D01*
X148220801Y-107443668D01*
X148238499Y-107408932D01*
X148252438Y-107371562D01*
X148268416Y-107350217D01*
X148281168Y-107325191D01*
X148304966Y-107301392D01*
X148324842Y-107274842D01*
X148351392Y-107254966D01*
X148375191Y-107231168D01*
X148400217Y-107218416D01*
X148421562Y-107202438D01*
X148458932Y-107188499D01*
X148493668Y-107170801D01*
X148515770Y-107167300D01*
X148535620Y-107159897D01*
X148619329Y-107150898D01*
X148625000Y-107150000D01*
X149875000Y-107150000D01*
X149880672Y-107150898D01*
G37*
G36*
X141194134Y-106053806D02*
G01*
X141210355Y-106064645D01*
X141221194Y-106080866D01*
X141225000Y-106100000D01*
X141225000Y-107600000D01*
X141221194Y-107619134D01*
X141210355Y-107635355D01*
X141194134Y-107646194D01*
X141175000Y-107650000D01*
X140725000Y-107650000D01*
X140705866Y-107646194D01*
X140689645Y-107635355D01*
X140678806Y-107619134D01*
X140675000Y-107600000D01*
X140675000Y-106100000D01*
X140678806Y-106080866D01*
X140689645Y-106064645D01*
X140705866Y-106053806D01*
X140725000Y-106050000D01*
X141175000Y-106050000D01*
X141194134Y-106053806D01*
G37*
G36*
X141844134Y-106053806D02*
G01*
X141860355Y-106064645D01*
X141871194Y-106080866D01*
X141875000Y-106100000D01*
X141875000Y-107600000D01*
X141871194Y-107619134D01*
X141860355Y-107635355D01*
X141844134Y-107646194D01*
X141825000Y-107650000D01*
X141375000Y-107650000D01*
X141355866Y-107646194D01*
X141339645Y-107635355D01*
X141328806Y-107619134D01*
X141325000Y-107600000D01*
X141325000Y-106100000D01*
X141328806Y-106080866D01*
X141339645Y-106064645D01*
X141355866Y-106053806D01*
X141375000Y-106050000D01*
X141825000Y-106050000D01*
X141844134Y-106053806D01*
G37*
G36*
X142494134Y-106053806D02*
G01*
X142510355Y-106064645D01*
X142521194Y-106080866D01*
X142525000Y-106100000D01*
X142525000Y-107600000D01*
X142521194Y-107619134D01*
X142510355Y-107635355D01*
X142494134Y-107646194D01*
X142475000Y-107650000D01*
X142025000Y-107650000D01*
X142005866Y-107646194D01*
X141989645Y-107635355D01*
X141978806Y-107619134D01*
X141975000Y-107600000D01*
X141975000Y-106100000D01*
X141978806Y-106080866D01*
X141989645Y-106064645D01*
X142005866Y-106053806D01*
X142025000Y-106050000D01*
X142475000Y-106050000D01*
X142494134Y-106053806D01*
G37*
G36*
X143144134Y-106053806D02*
G01*
X143160355Y-106064645D01*
X143171194Y-106080866D01*
X143175000Y-106100000D01*
X143175000Y-107600000D01*
X143171194Y-107619134D01*
X143160355Y-107635355D01*
X143144134Y-107646194D01*
X143125000Y-107650000D01*
X142675000Y-107650000D01*
X142655866Y-107646194D01*
X142639645Y-107635355D01*
X142628806Y-107619134D01*
X142625000Y-107600000D01*
X142625000Y-106100000D01*
X142628806Y-106080866D01*
X142639645Y-106064645D01*
X142655866Y-106053806D01*
X142675000Y-106050000D01*
X143125000Y-106050000D01*
X143144134Y-106053806D01*
G37*
G36*
X143794134Y-106053806D02*
G01*
X143810355Y-106064645D01*
X143821194Y-106080866D01*
X143825000Y-106100000D01*
X143825000Y-107600000D01*
X143821194Y-107619134D01*
X143810355Y-107635355D01*
X143794134Y-107646194D01*
X143775000Y-107650000D01*
X143325000Y-107650000D01*
X143305866Y-107646194D01*
X143289645Y-107635355D01*
X143278806Y-107619134D01*
X143275000Y-107600000D01*
X143275000Y-106100000D01*
X143278806Y-106080866D01*
X143289645Y-106064645D01*
X143305866Y-106053806D01*
X143325000Y-106050000D01*
X143775000Y-106050000D01*
X143794134Y-106053806D01*
G37*
G36*
X139803686Y-106000241D02*
G01*
X139857577Y-106002889D01*
X139864210Y-106004208D01*
X139878316Y-106005133D01*
X139905562Y-106012433D01*
X139974099Y-106026066D01*
X140006448Y-106039465D01*
X140029610Y-106045672D01*
X140050377Y-106057662D01*
X140082722Y-106071060D01*
X140140816Y-106109877D01*
X140165257Y-106123988D01*
X140171946Y-106130677D01*
X140180481Y-106136380D01*
X140263619Y-106219518D01*
X140269321Y-106228052D01*
X140276012Y-106234743D01*
X140290124Y-106259186D01*
X140328939Y-106317277D01*
X140342335Y-106349618D01*
X140354328Y-106370390D01*
X140360535Y-106393555D01*
X140373933Y-106425900D01*
X140387565Y-106494433D01*
X140394867Y-106521684D01*
X140394867Y-106531141D01*
X140396870Y-106541211D01*
X140396870Y-106658788D01*
X140394867Y-106668857D01*
X140394867Y-106678316D01*
X140387564Y-106705569D01*
X140373933Y-106774099D01*
X140360535Y-106806441D01*
X140354328Y-106829610D01*
X140342334Y-106850383D01*
X140328939Y-106882722D01*
X140290128Y-106940805D01*
X140276012Y-106965257D01*
X140269319Y-106971949D01*
X140263619Y-106980481D01*
X140180481Y-107063619D01*
X140171949Y-107069319D01*
X140165257Y-107076012D01*
X140140805Y-107090128D01*
X140082722Y-107128939D01*
X140050383Y-107142334D01*
X140029610Y-107154328D01*
X140006441Y-107160535D01*
X139974099Y-107173933D01*
X139905576Y-107187562D01*
X139878316Y-107194867D01*
X139864203Y-107195791D01*
X139857577Y-107197110D01*
X139803691Y-107199758D01*
X139800000Y-107200000D01*
X139798768Y-107200000D01*
X139101232Y-107200000D01*
X139100000Y-107200000D01*
X139096308Y-107199758D01*
X139042422Y-107197110D01*
X139035795Y-107195791D01*
X139021684Y-107194867D01*
X138994426Y-107187563D01*
X138925900Y-107173933D01*
X138893555Y-107160535D01*
X138870390Y-107154328D01*
X138849618Y-107142335D01*
X138817277Y-107128939D01*
X138759186Y-107090124D01*
X138734743Y-107076012D01*
X138728052Y-107069321D01*
X138719518Y-107063619D01*
X138636380Y-106980481D01*
X138630677Y-106971946D01*
X138623988Y-106965257D01*
X138609877Y-106940816D01*
X138571060Y-106882722D01*
X138557662Y-106850377D01*
X138545672Y-106829610D01*
X138539465Y-106806448D01*
X138526066Y-106774099D01*
X138512433Y-106705563D01*
X138505133Y-106678316D01*
X138505133Y-106668858D01*
X138503130Y-106658788D01*
X138503130Y-106541211D01*
X138505133Y-106531140D01*
X138505133Y-106521684D01*
X138512433Y-106494439D01*
X138526066Y-106425900D01*
X138539466Y-106393548D01*
X138545672Y-106370390D01*
X138557660Y-106349624D01*
X138571060Y-106317277D01*
X138609881Y-106259175D01*
X138623988Y-106234743D01*
X138630675Y-106228055D01*
X138636380Y-106219518D01*
X138719518Y-106136380D01*
X138728055Y-106130675D01*
X138734743Y-106123988D01*
X138759175Y-106109881D01*
X138817277Y-106071060D01*
X138849624Y-106057660D01*
X138870390Y-106045672D01*
X138893548Y-106039466D01*
X138925900Y-106026066D01*
X138994440Y-106012432D01*
X139021684Y-106005133D01*
X139035787Y-106004208D01*
X139042422Y-106002889D01*
X139096313Y-106000241D01*
X139100000Y-106000000D01*
X139800000Y-106000000D01*
X139803686Y-106000241D01*
G37*
G36*
X145403686Y-106000241D02*
G01*
X145457577Y-106002889D01*
X145464210Y-106004208D01*
X145478316Y-106005133D01*
X145505562Y-106012433D01*
X145574099Y-106026066D01*
X145606448Y-106039465D01*
X145629610Y-106045672D01*
X145650377Y-106057662D01*
X145682722Y-106071060D01*
X145740816Y-106109877D01*
X145765257Y-106123988D01*
X145771946Y-106130677D01*
X145780481Y-106136380D01*
X145863619Y-106219518D01*
X145869321Y-106228052D01*
X145876012Y-106234743D01*
X145890124Y-106259186D01*
X145928939Y-106317277D01*
X145942335Y-106349618D01*
X145954328Y-106370390D01*
X145960535Y-106393555D01*
X145973933Y-106425900D01*
X145987565Y-106494433D01*
X145994867Y-106521684D01*
X145994867Y-106531141D01*
X145996870Y-106541211D01*
X145996870Y-106658788D01*
X145994867Y-106668857D01*
X145994867Y-106678316D01*
X145987564Y-106705569D01*
X145973933Y-106774099D01*
X145960535Y-106806441D01*
X145954328Y-106829610D01*
X145942334Y-106850383D01*
X145928939Y-106882722D01*
X145890128Y-106940805D01*
X145876012Y-106965257D01*
X145869319Y-106971949D01*
X145863619Y-106980481D01*
X145780481Y-107063619D01*
X145771949Y-107069319D01*
X145765257Y-107076012D01*
X145740805Y-107090128D01*
X145682722Y-107128939D01*
X145650383Y-107142334D01*
X145629610Y-107154328D01*
X145606441Y-107160535D01*
X145574099Y-107173933D01*
X145505576Y-107187562D01*
X145478316Y-107194867D01*
X145464203Y-107195791D01*
X145457577Y-107197110D01*
X145403691Y-107199758D01*
X145400000Y-107200000D01*
X145398768Y-107200000D01*
X144701232Y-107200000D01*
X144700000Y-107200000D01*
X144696308Y-107199758D01*
X144642422Y-107197110D01*
X144635795Y-107195791D01*
X144621684Y-107194867D01*
X144594426Y-107187563D01*
X144525900Y-107173933D01*
X144493555Y-107160535D01*
X144470390Y-107154328D01*
X144449618Y-107142335D01*
X144417277Y-107128939D01*
X144359186Y-107090124D01*
X144334743Y-107076012D01*
X144328052Y-107069321D01*
X144319518Y-107063619D01*
X144236380Y-106980481D01*
X144230677Y-106971946D01*
X144223988Y-106965257D01*
X144209877Y-106940816D01*
X144171060Y-106882722D01*
X144157662Y-106850377D01*
X144145672Y-106829610D01*
X144139465Y-106806448D01*
X144126066Y-106774099D01*
X144112433Y-106705563D01*
X144105133Y-106678316D01*
X144105133Y-106668858D01*
X144103130Y-106658788D01*
X144103130Y-106541211D01*
X144105133Y-106531140D01*
X144105133Y-106521684D01*
X144112433Y-106494439D01*
X144126066Y-106425900D01*
X144139466Y-106393548D01*
X144145672Y-106370390D01*
X144157660Y-106349624D01*
X144171060Y-106317277D01*
X144209881Y-106259175D01*
X144223988Y-106234743D01*
X144230675Y-106228055D01*
X144236380Y-106219518D01*
X144319518Y-106136380D01*
X144328055Y-106130675D01*
X144334743Y-106123988D01*
X144359175Y-106109881D01*
X144417277Y-106071060D01*
X144449624Y-106057660D01*
X144470390Y-106045672D01*
X144493548Y-106039466D01*
X144525900Y-106026066D01*
X144594440Y-106012432D01*
X144621684Y-106005133D01*
X144635787Y-106004208D01*
X144642422Y-106002889D01*
X144696313Y-106000241D01*
X144700000Y-106000000D01*
X145400000Y-106000000D01*
X145403686Y-106000241D01*
G37*
G36*
X149880672Y-104850898D02*
G01*
X149964379Y-104859897D01*
X149984227Y-104867299D01*
X150006332Y-104870801D01*
X150041070Y-104888501D01*
X150078437Y-104902438D01*
X150099779Y-104918414D01*
X150124809Y-104931168D01*
X150148610Y-104954969D01*
X150175157Y-104974842D01*
X150195029Y-105001388D01*
X150218832Y-105025191D01*
X150231585Y-105050221D01*
X150247561Y-105071562D01*
X150261496Y-105108924D01*
X150279199Y-105143668D01*
X150282700Y-105165775D01*
X150290102Y-105185620D01*
X150299098Y-105269309D01*
X150300000Y-105275000D01*
X150300000Y-106025000D01*
X150299098Y-106030692D01*
X150290102Y-106114379D01*
X150282700Y-106134222D01*
X150279199Y-106156332D01*
X150261495Y-106191077D01*
X150247561Y-106228437D01*
X150231587Y-106249775D01*
X150218832Y-106274809D01*
X150195026Y-106298614D01*
X150175157Y-106325157D01*
X150148614Y-106345026D01*
X150124809Y-106368832D01*
X150099775Y-106381587D01*
X150078437Y-106397561D01*
X150041077Y-106411495D01*
X150006332Y-106429199D01*
X149984222Y-106432700D01*
X149964379Y-106440102D01*
X149880692Y-106449098D01*
X149875000Y-106450000D01*
X148625000Y-106450000D01*
X148619309Y-106449098D01*
X148535620Y-106440102D01*
X148515775Y-106432700D01*
X148493668Y-106429199D01*
X148458924Y-106411496D01*
X148421562Y-106397561D01*
X148400221Y-106381585D01*
X148375191Y-106368832D01*
X148351388Y-106345029D01*
X148324842Y-106325157D01*
X148304969Y-106298610D01*
X148281168Y-106274809D01*
X148268414Y-106249779D01*
X148252438Y-106228437D01*
X148238501Y-106191070D01*
X148220801Y-106156332D01*
X148217299Y-106134227D01*
X148209897Y-106114379D01*
X148200898Y-106030672D01*
X148200000Y-106025000D01*
X148200000Y-105275000D01*
X148200898Y-105269329D01*
X148209897Y-105185620D01*
X148217300Y-105165770D01*
X148220801Y-105143668D01*
X148238499Y-105108932D01*
X148252438Y-105071562D01*
X148268416Y-105050217D01*
X148281168Y-105025191D01*
X148304966Y-105001392D01*
X148324842Y-104974842D01*
X148351392Y-104954966D01*
X148375191Y-104931168D01*
X148400217Y-104918416D01*
X148421562Y-104902438D01*
X148458932Y-104888499D01*
X148493668Y-104870801D01*
X148515770Y-104867300D01*
X148535620Y-104859897D01*
X148619329Y-104850898D01*
X148625000Y-104850000D01*
X149875000Y-104850000D01*
X149880672Y-104850898D01*
G37*
M02*
